<?xml version="1.0" encoding="UTF-8"?>
<svg version="1.1" xmlns="http://www.w3.org/2000/svg" width="618" height="501">
<path d="M0 0 C203.94 0 407.88 0 618 0 C618 165.33 618 330.66 618 501 C414.06 501 210.12 501 0 501 C0 335.67 0 170.34 0 0 Z " fill="#010101" transform="translate(0,0)"/>
<path d="M0 0 C0.81670166 0.41725342 1.63340332 0.83450684 2.47485352 1.2644043 C3.47609253 1.76665527 3.47609253 1.76665527 4.49755859 2.27905273 C5.15651123 2.6403125 5.81546387 3.00157227 6.49438477 3.3737793 C7.25734863 3.79167725 8.0203125 4.2095752 8.80639648 4.64013672 C9.6251123 5.09364502 10.44382812 5.54715332 11.28735352 6.0144043 C12.15247559 6.49176025 13.01759766 6.96911621 13.90893555 7.4609375 C23.97632138 13.04886406 33.89578883 18.88979903 43.8269043 24.71508789 C51.23276643 29.04826151 58.67741746 33.30687994 66.22485352 37.3894043 C69.89730609 39.38660733 73.54706513 41.41520459 77.16235352 43.5144043 C77.9912207 43.99393555 78.82008789 44.4734668 79.67407227 44.9675293 C80.26833008 45.39549805 80.86258789 45.8234668 81.47485352 46.2644043 C81.47485352 46.9244043 81.47485352 47.5844043 81.47485352 48.2644043 C78.47485352 50.2644043 78.47485352 50.2644043 75.94750977 50.25268555 C70.8059208 48.78944369 66.50776437 46.142275 61.91235352 43.4519043 C60.89657227 42.86731445 59.88079102 42.28272461 58.83422852 41.68041992 C56.73038867 40.4690786 54.6286721 39.25404243 52.52905273 38.03540039 C48.02361149 35.42289273 43.49863694 32.84496689 38.97485352 30.2644043 C38.1343042 29.78326172 37.29375488 29.30211914 36.42773438 28.80639648 C28.64485662 24.35145633 20.83734789 19.94047658 13.02368164 15.53979492 C12.11038086 15.02481445 11.19708008 14.50983398 10.25610352 13.97924805 C9.45237305 13.52670654 8.64864258 13.07416504 7.82055664 12.60791016 C6.14071892 11.64577995 4.48943187 10.63311999 2.859375 9.58886719 C0.50158946 8.01235299 0.50158946 8.01235299 -2.45874023 8.3581543 C-5.95383497 9.39109949 -8.50271009 10.81523428 -11.58764648 12.7644043 C-12.90921195 13.58429463 -14.2322708 14.40178019 -15.55639648 15.2175293 C-16.32081055 15.6899707 -17.08522461 16.16241211 -17.87280273 16.64916992 C-22.77607604 19.63518393 -27.74148546 22.5165074 -32.69894409 25.41131592 C-35.85218285 27.25295124 -39.00310068 29.09854762 -42.15405273 30.9440918 C-42.77546646 31.30798004 -43.39688019 31.67186829 -44.03712463 32.04678345 C-50.0412124 35.56397823 -56.03513139 39.09829778 -62.02514648 42.6394043 C-62.91983643 43.16824219 -63.81452637 43.69708008 -64.73632812 44.24194336 C-65.56382568 44.73146484 -66.39132324 45.22098633 -67.24389648 45.7253418 C-67.99670898 46.16974609 -68.74952148 46.61415039 -69.52514648 47.07202148 C-71.19348396 48.06666995 -72.84582358 49.08808975 -74.49389648 50.1159668 C-76.52514648 51.2644043 -76.52514648 51.2644043 -78.52514648 51.2644043 C-78.49485352 51.88927734 -78.46456055 52.51415039 -78.43334961 53.15795898 C-77.50368126 73.50339319 -77.43724174 93.83999785 -77.46264648 114.2019043 C-77.4635025 114.89283676 -77.46435852 115.58376923 -77.46524048 116.29563904 C-77.47675073 124.95191749 -77.49699642 133.60816389 -77.52514648 142.2644043 C-76.64262207 142.53736328 -75.76009766 142.81032227 -74.85083008 143.09155273 C-71.77075643 144.17778631 -69.15203299 145.42915117 -66.31420898 147.0300293 C-65.3289624 147.58327881 -64.34371582 148.13652832 -63.32861328 148.70654297 C-61.75527222 149.60143433 -61.75527222 149.60143433 -60.15014648 150.5144043 C-59.05033447 151.13484619 -57.95052246 151.75528809 -56.81738281 152.39453125 C-48.24438767 157.24662748 -39.73929493 162.21175338 -31.24145508 167.19384766 C-24.62669596 171.06280587 -17.97835225 174.86315723 -11.27514648 178.5769043 C-10.44716553 179.0392749 -9.61918457 179.50164551 -8.76611328 179.97802734 C-8.00081299 180.39866455 -7.2355127 180.81930176 -6.44702148 181.25268555 C-5.78283203 181.61918213 -5.11864258 181.98567871 -4.43432617 182.36328125 C-2.44645024 183.30154852 -0.69662081 183.91700189 1.47485352 184.2644043 C3.94382855 183.13295061 3.94382855 183.13295061 6.59985352 181.2644043 C13.17417973 177.002004 19.9230608 173.08928782 26.72485352 169.2019043 C37.8797353 162.80170803 48.93102484 156.24700453 59.94360352 149.60424805 C60.86657227 149.0510791 61.78954102 148.49791016 62.74047852 147.92797852 C64.59899156 146.79727245 66.44247498 145.64156555 68.27172852 144.46411133 C69.15344727 143.90449707 70.03516602 143.34488281 70.94360352 142.76831055 C71.72155273 142.26243408 72.49950195 141.75655762 73.30102539 141.23535156 C75.47485352 140.2644043 75.47485352 140.2644043 77.61743164 140.54150391 C79.64419018 141.33030938 81.55811567 142.23758045 83.47485352 143.2644043 C80.3025318 145.74444478 76.99401889 147.82609155 73.53735352 149.8894043 C72.90531006 150.26709961 72.2732666 150.64479492 71.62207031 151.03393555 C67.10249968 153.72569678 62.56393346 156.38448761 58.02172852 159.0378418 C56.22848582 160.08543891 54.43526504 161.13307349 52.64208984 162.18078613 C51.40309034 162.90466389 50.16399488 163.62837743 48.92480469 164.35192871 C38.03412489 170.71485547 27.23497395 177.22003113 16.48583984 183.8190918 C14.84264771 184.82456055 14.84264771 184.82456055 13.16625977 185.8503418 C12.20921143 186.4386377 11.25216309 187.02693359 10.26611328 187.63305664 C2.26572627 192.30887104 2.26572627 192.30887104 -1.07836914 192.12084961 C-3.80421524 191.16672188 -6.1632114 189.9919466 -8.67358398 188.5612793 C-10.16365967 187.71907837 -10.16365967 187.71907837 -11.68383789 186.85986328 C-13.27591064 185.94636108 -13.27591064 185.94636108 -14.90014648 185.0144043 C-16.00922363 184.38542236 -17.11830078 183.75644043 -18.26098633 183.10839844 C-20.56352174 181.80203598 -22.86445281 180.49284198 -25.16381836 179.1809082 C-29.21346845 176.87194879 -33.27298602 174.58080305 -37.33349609 172.29101562 C-40.15543368 170.69892134 -42.97530432 169.10322184 -45.79467773 167.5065918 C-49.76845027 165.25682097 -53.74535198 163.01270542 -57.72436523 160.7722168 C-58.74771973 160.19544189 -59.77107422 159.61866699 -60.82543945 159.02441406 C-62.76267011 157.93270027 -64.70045108 156.84196209 -66.63891602 155.75244141 C-67.52562988 155.25236572 -68.41234375 154.75229004 -69.32592773 154.23706055 C-70.09074463 153.80659424 -70.85556152 153.37612793 -71.64355469 152.93261719 C-72.59447998 152.38210693 -73.54540527 151.83159668 -74.52514648 151.2644043 C-75.35177292 151.01290619 -76.17839935 150.76140808 -77.03007507 150.50228882 C-80.42941778 149.16938033 -82.17302607 148.09161614 -84.52514648 145.2644043 C-86.5611277 138.38782768 -85.90603587 130.76056223 -85.81811523 123.6706543 C-85.82231363 121.51883134 -85.82962761 119.3670124 -85.83992004 117.21520996 C-85.85014272 112.70887741 -85.82477336 108.20453219 -85.77392578 103.69848633 C-85.71134563 97.92696823 -85.73377324 92.15953474 -85.78245068 86.38800812 C-85.81111243 81.94557408 -85.79638775 77.50409814 -85.7684269 73.06169128 C-85.75991887 70.93427199 -85.76446443 68.80675854 -85.78236961 66.67939758 C-85.88369998 50.09953427 -85.88369998 50.09953427 -82.63931274 45.71702576 C-80.30094685 44.12164932 -78.19721696 43.17044359 -75.52514648 42.2644043 C-74.0343457 41.36347046 -74.0343457 41.36347046 -72.51342773 40.44433594 C-71.63041992 39.94281006 -70.74741211 39.44128418 -69.83764648 38.92456055 C-68.8221875 38.34432129 -67.80672852 37.76408203 -66.76049805 37.16625977 C-65.69283203 36.55927246 -64.62516602 35.95228516 -63.52514648 35.3269043 C-54.55184208 30.18890207 -45.63333267 24.97460618 -36.77514648 19.6394043 C-35.24615723 18.72312256 -35.24615723 18.72312256 -33.6862793 17.78833008 C-28.51380595 14.68501075 -23.36514214 11.5492697 -18.24389648 8.36206055 C-16.25433977 7.14196505 -14.26475752 5.9219112 -12.27514648 4.7019043 C-10.9085791 3.833479 -10.9085791 3.833479 -9.5144043 2.94750977 C-8.66716797 2.4320459 -7.81993164 1.91658203 -6.94702148 1.38549805 C-5.84245605 0.69605103 -5.84245605 0.69605103 -4.71557617 -0.00732422 C-2.52514648 -0.7355957 -2.52514648 -0.7355957 0 0 Z " fill="#CBB873" transform="translate(211.525146484375,149.735595703125)"/>
<path d="M0 0 C7.65412462 4.43939228 12.51216584 10.52539915 15 19 C16.22690613 27.58834292 14.35297202 34.08171478 9.52734375 41.16015625 C4.4936305 47.52667301 -1.30053921 51.34175176 -9.40234375 52.4765625 C-18.42935235 52.84901237 -25.2931187 51.26115391 -32.0625 45.1328125 C-39.22251952 37.46562493 -40.64634695 31.12676598 -40.41015625 20.734375 C-39.63946079 13.71737632 -36.88176417 8.44574816 -31.75 3.625 C-22.22374149 -3.58627526 -10.80479379 -6.05068452 0 0 Z " fill="#D8CB82" transform="translate(225,206)"/>
<path d="M0 0 C3.19296677 0.81354226 5.45418953 1.87392119 8.26611328 3.57177734 C9.22646484 4.14347656 10.18681641 4.71517578 11.17626953 5.30419922 C12.19333984 5.92101562 13.21041016 6.53783203 14.25830078 7.17333984 C16.42634401 8.46446595 18.59563297 9.75350237 20.76611328 11.04052734 C21.8440918 11.68086914 22.92207031 12.32121094 24.03271484 12.98095703 C28.35088403 15.5120162 32.73214221 17.91546671 37.13330078 20.29833984 C44.87284972 24.50823586 52.51906876 28.86583427 60.13330078 33.29833984 C61.16712891 33.89839844 62.20095703 34.49845703 63.26611328 35.11669922 C64.23291016 35.68195313 65.19970703 36.24720703 66.19580078 36.82958984 C67.05302734 37.33039063 67.91025391 37.83119141 68.79345703 38.34716797 C71.01050691 39.72218305 73.07447399 41.19835089 75.13330078 42.79833984 C74.14330078 43.29333984 74.14330078 43.29333984 73.13330078 43.79833984 C73.13330078 44.45833984 73.13330078 45.11833984 73.13330078 45.79833984 C69.12381325 45.21039607 66.29018637 43.94897532 62.81689453 41.88427734 C61.80433594 41.28744141 60.79177734 40.69060547 59.74853516 40.07568359 C58.69988281 39.44791016 57.65123047 38.82013672 56.57080078 38.17333984 C55.54921875 37.56876953 54.52763672 36.96419922 53.47509766 36.34130859 C51.40648003 35.1171046 49.3392638 33.89052955 47.2734375 32.66162109 C39.73843094 28.19053028 32.19361369 23.75260662 24.46533203 19.62255859 C21.68628374 18.10108667 18.94622325 16.53490067 16.20751953 14.94287109 C15.32257813 14.4365918 14.43763672 13.9303125 13.52587891 13.40869141 C11.74752979 12.39111619 9.97638275 11.36083052 8.21337891 10.31689453 C3.42201325 7.58920821 3.42201325 7.58920821 -1.92529297 6.66162109 C-6.13674001 8.28915242 -9.80403918 10.52130282 -13.61669922 12.92333984 C-15.40177173 14.02194894 -17.18830541 15.1181864 -18.97607422 16.21240234 C-19.92675781 16.79538086 -20.87744141 17.37835938 -21.85693359 17.97900391 C-27.14231969 21.17390147 -32.50715797 24.23005375 -37.86669922 27.29833984 C-46.95473085 32.5080694 -55.97773278 37.80795447 -64.90185547 43.29443359 C-65.66369141 43.75849609 -66.42552734 44.22255859 -67.21044922 44.70068359 C-68.20334961 45.31157837 -68.20334961 45.31157837 -69.21630859 45.93481445 C-70.86669922 46.79833984 -70.86669922 46.79833984 -72.86669922 46.79833984 C-72.82465009 49.34657436 -72.78223659 51.89480208 -72.7394104 54.44302368 C-72.70132963 56.72025399 -72.66397568 58.99749656 -72.62728882 61.27474976 C-72.52351648 67.55677118 -72.40040181 73.83751333 -72.24194336 80.1184082 C-71.71449607 101.8865699 -71.71449607 101.8865699 -72.42138672 111.41552734 C-73.51798339 122.96294995 -73.51798339 122.96294995 -68.90332031 133.0625 C-63.31768893 137.62440885 -56.99931769 140.4299983 -50.40136719 143.22949219 C-44.39028585 145.8974856 -38.76125621 149.23011983 -33.05419922 152.48583984 C-30.79644498 153.73179765 -28.53735303 154.97533486 -26.27685547 156.21630859 C-22.17884366 158.48536457 -18.12738403 160.8105997 -14.11279297 163.22412109 C-13.24050049 163.74594971 -12.36820801 164.26777832 -11.46948242 164.80541992 C-9.86785691 165.77043519 -8.27333484 166.74738419 -6.68774414 167.73852539 C-2.71286567 170.17547449 -2.71286567 170.17547449 1.80908203 170.77880859 C4.56474984 169.6163336 6.93319814 168.24073007 9.44580078 166.61083984 C15.58940823 162.70957675 21.83923221 159.01386383 28.13330078 155.36083984 C35.1020544 151.31619919 42.06027412 147.25645926 48.99267578 143.14990234 C50.97394161 141.97885243 52.95544114 140.80819894 54.93701172 139.63766479 C56.2284147 138.87340516 57.51879159 138.10740886 58.80810547 137.33963013 C60.61698355 136.26273101 62.42941947 135.19206439 64.24267578 134.12255859 C65.28391602 133.50469482 66.32515625 132.88683105 67.39794922 132.25024414 C69.71717954 131.01921391 71.57024233 130.25734358 74.13330078 129.79833984 C74.46330078 131.44833984 74.79330078 133.09833984 75.13330078 134.79833984 C74.35188721 135.24149536 74.35188721 135.24149536 73.5546875 135.69360352 C62.39462165 142.02963306 51.28775774 148.44539366 40.25268555 154.99682617 C33.39333091 159.065997 26.49746959 163.0676302 19.57592773 167.0300293 C14.31246631 170.06043849 9.24041909 173.26751547 4.26220703 176.75146484 C1.57816404 178.07132452 0.92590535 177.74176647 -1.86669922 176.79833984 C-3.70843736 175.88293326 -5.5236756 174.91352864 -7.31982422 173.91162109 C-8.40158936 173.3101123 -9.48335449 172.70860352 -10.59790039 172.08886719 C-11.77095418 171.42973976 -12.94388395 170.77039159 -14.11669922 170.11083984 C-15.33446465 169.43050404 -16.55232073 168.75033047 -17.77026367 168.0703125 C-26.44460672 163.21475096 -35.05527209 158.25273047 -43.59228516 153.15893555 C-54.49707187 146.70737541 -65.71024267 140.79956233 -76.86669922 134.79833984 C-77.03831726 125.44425991 -77.20480721 116.09009291 -77.36669922 106.73583984 C-77.37857647 106.04974136 -77.39045372 105.36364288 -77.40269089 104.65675354 C-77.75237362 84.36970819 -78.03674751 64.08902497 -77.86669922 43.79833984 C-77.34575684 43.50290283 -76.82481445 43.20746582 -76.28808594 42.90307617 C-65.371954 36.70553797 -54.50250782 30.43781248 -43.70678711 24.03271484 C-38.19239428 20.76175361 -32.66953577 17.50592237 -27.13623047 14.26708984 C-26.47642181 13.88082932 -25.81661316 13.49456879 -25.1368103 13.09660339 C-22.50116308 11.55399626 -19.86532165 10.01172555 -17.22851562 8.47109985 C-15.39523478 7.3999335 -13.56257063 6.32771851 -11.72998047 5.25537109 C-10.14117065 4.32688354 -10.14117065 4.32688354 -8.52026367 3.37963867 C-2.54812269 -0.17924965 -2.54812269 -0.17924965 0 0 Z " fill="#19170E" transform="translate(210.86669921875,157.20166015625)"/>
<path d="M0 0 C26.71774483 -1.57163205 26.71774483 -1.57163205 33.19433594 2.92285156 C39.05465822 8.37689905 39.66436976 14.53906213 39.97973633 22.30541992 C40.062481 37.3918663 40.062481 37.3918663 37.45214844 41.34277344 C34.02900447 43.65622438 30.93799772 43.50153423 26.953125 43.390625 C26.26911621 43.38659668 25.58510742 43.38256836 24.88037109 43.37841797 C22.33663937 43.35756309 19.79329144 43.3017171 17.25 43.25 C11.5575 43.1675 5.865 43.085 0 43 C0 28.81 0 14.62 0 0 Z " fill="#956A31" transform="translate(279,224)"/>
<path d="M0 0 C5.713125 -0.061875 11.42625 -0.12375 17.3125 -0.1875 C19.11243408 -0.21481201 20.91236816 -0.24212402 22.7668457 -0.27026367 C24.19481739 -0.27902617 25.62279657 -0.28667067 27.05078125 -0.29296875 C28.16132874 -0.3159906 28.16132874 -0.3159906 29.29431152 -0.33947754 C32.20848619 -0.34096512 34.43464387 -0.33812296 36.97412109 1.18066406 C38.38377309 3.68059901 38.37213685 5.53767736 38.36328125 8.40234375 C38.36263672 9.45744141 38.36199219 10.51253906 38.36132812 11.59960938 C38.34521484 12.70111328 38.32910156 13.80261719 38.3125 14.9375 C38.31572266 16.03513672 38.31894531 17.13277344 38.32226562 18.26367188 C38.26238286 27.18620457 38.26238286 27.18620457 36 31 C36.66 31.66 37.32 32.32 38 33 C38.1953125 35.3828125 38.1953125 35.3828125 38.125 38.125 C38.10695313 39.03507812 38.08890625 39.94515625 38.0703125 40.8828125 C38.04710937 41.58148438 38.02390625 42.28015625 38 43 C35.36 43 32.72 43 30 43 C29.79375 42.13375 29.5875 41.2675 29.375 40.375 C27.63982723 36.11593957 26.12207207 33.23706758 22 31 C17.3288934 30.20414331 12.7331175 30.01296745 8 30 C8 34.29 8 38.58 8 43 C5.36 43 2.72 43 0 43 C0 28.81 0 14.62 0 0 Z " fill="#B49453" transform="translate(368,224)"/>
<path d="M0 0 C0 14.19 0 28.38 0 43 C-2.97 43 -5.94 43 -9 43 C-9 38.71 -9 34.42 -9 30 C-15.93 30 -22.86 30 -30 30 C-30 34.29 -30 38.58 -30 43 C-32.97 43 -35.94 43 -39 43 C-41.15834835 12.90487614 -41.15834835 12.90487614 -36.07617188 5.52539062 C-27.1284332 -3.90056755 -11.52201136 -0.67776537 0 0 Z " fill="#CEB972" transform="translate(495,224)"/>
<path d="M0 0 C0 14.19 0 28.38 0 43 C-2.64 43 -5.28 43 -8 43 C-8 38.71 -8 34.42 -8 30 C-14.93 30 -21.86 30 -29 30 C-29 34.29 -29 38.58 -29 43 C-31.97 43 -34.94 43 -38 43 C-40.1597772 12.88495276 -40.1597772 12.88495276 -35.02539062 5.52539062 C-26.18442753 -3.71014823 -11.42547584 -0.69951893 0 0 Z " fill="#A37D40" transform="translate(361,224)"/>
<path d="M0 0 C0.81670166 0.41725342 1.63340332 0.83450684 2.47485352 1.2644043 C3.47609253 1.76665527 3.47609253 1.76665527 4.49755859 2.27905273 C5.15651123 2.6403125 5.81546387 3.00157227 6.49438477 3.3737793 C7.25734863 3.79167725 8.0203125 4.2095752 8.80639648 4.64013672 C9.6251123 5.09364502 10.44382812 5.54715332 11.28735352 6.0144043 C12.15247559 6.49176025 13.01759766 6.96911621 13.90893555 7.4609375 C23.97632138 13.04886406 33.89578883 18.88979903 43.8269043 24.71508789 C51.23276643 29.04826151 58.67741746 33.30687994 66.22485352 37.3894043 C69.89730609 39.38660733 73.54706513 41.41520459 77.16235352 43.5144043 C77.9912207 43.99393555 78.82008789 44.4734668 79.67407227 44.9675293 C80.26833008 45.39549805 80.86258789 45.8234668 81.47485352 46.2644043 C81.47485352 46.9244043 81.47485352 47.5844043 81.47485352 48.2644043 C78.47485352 50.2644043 78.47485352 50.2644043 75.94750977 50.25268555 C70.8059208 48.78944369 66.50776437 46.142275 61.91235352 43.4519043 C60.89657227 42.86731445 59.88079102 42.28272461 58.83422852 41.68041992 C56.73038867 40.4690786 54.6286721 39.25404243 52.52905273 38.03540039 C48.02361149 35.42289273 43.49863694 32.84496689 38.97485352 30.2644043 C38.1343042 29.78326172 37.29375488 29.30211914 36.42773438 28.80639648 C28.64485662 24.35145633 20.83734789 19.94047658 13.02368164 15.53979492 C12.11038086 15.02481445 11.19708008 14.50983398 10.25610352 13.97924805 C9.45237305 13.52670654 8.64864258 13.07416504 7.82055664 12.60791016 C6.14071892 11.64577995 4.48943187 10.63311999 2.859375 9.58886719 C0.50158946 8.01235299 0.50158946 8.01235299 -2.45874023 8.3581543 C-5.95383497 9.39109949 -8.50271009 10.81523428 -11.58764648 12.7644043 C-12.90921195 13.58429463 -14.2322708 14.40178019 -15.55639648 15.2175293 C-16.32081055 15.6899707 -17.08522461 16.16241211 -17.87280273 16.64916992 C-22.77607604 19.63518393 -27.74148546 22.5165074 -32.69894409 25.41131592 C-35.85218285 27.25295124 -39.00310068 29.09854762 -42.15405273 30.9440918 C-42.77546646 31.30798004 -43.39688019 31.67186829 -44.03712463 32.04678345 C-50.0412124 35.56397823 -56.03513139 39.09829778 -62.02514648 42.6394043 C-62.91983643 43.16824219 -63.81452637 43.69708008 -64.73632812 44.24194336 C-65.56382568 44.73146484 -66.39132324 45.22098633 -67.24389648 45.7253418 C-67.99670898 46.16974609 -68.74952148 46.61415039 -69.52514648 47.07202148 C-71.19348396 48.06666995 -72.84582358 49.08808975 -74.49389648 50.1159668 C-76.52514648 51.2644043 -76.52514648 51.2644043 -78.52514648 51.2644043 C-78.52514648 56.5444043 -78.52514648 61.8244043 -78.52514648 67.2644043 C-78.85514648 67.2644043 -79.18514648 67.2644043 -79.52514648 67.2644043 C-79.85514648 63.3044043 -80.18514648 59.3444043 -80.52514648 55.2644043 C-81.84514648 56.2544043 -83.16514648 57.2444043 -84.52514648 58.2644043 C-85.0830708 54.77909929 -85.21043833 51.73887161 -84.52514648 48.2644043 C-82.92333984 46.67089844 -82.92333984 46.67089844 -80.73999023 45.36206055 C-79.91877686 44.8599707 -79.09756348 44.35788086 -78.25146484 43.84057617 C-77.35177979 43.32043945 -76.45209473 42.80030273 -75.52514648 42.2644043 C-74.60934814 41.72364258 -73.6935498 41.18288086 -72.75 40.62573242 C-69.68752591 38.83687171 -66.60835663 37.07976464 -63.52514648 35.3269043 C-54.55184208 30.18890207 -45.63333267 24.97460618 -36.77514648 19.6394043 C-35.24615723 18.72312256 -35.24615723 18.72312256 -33.6862793 17.78833008 C-28.51380595 14.68501075 -23.36514214 11.5492697 -18.24389648 8.36206055 C-16.25433977 7.14196505 -14.26475752 5.9219112 -12.27514648 4.7019043 C-10.9085791 3.833479 -10.9085791 3.833479 -9.5144043 2.94750977 C-8.66716797 2.4320459 -7.81993164 1.91658203 -6.94702148 1.38549805 C-5.84245605 0.69605103 -5.84245605 0.69605103 -4.71557617 -0.00732422 C-2.52514648 -0.7355957 -2.52514648 -0.7355957 0 0 Z " fill="#A98749" transform="translate(211.525146484375,149.735595703125)"/>
<path d="M0 0 C5.713125 -0.061875 11.42625 -0.12375 17.3125 -0.1875 C19.11243408 -0.21481201 20.91236816 -0.24212402 22.7668457 -0.27026367 C24.19481739 -0.27902617 25.62279657 -0.28667067 27.05078125 -0.29296875 C28.16132874 -0.3159906 28.16132874 -0.3159906 29.29431152 -0.33947754 C34.43516845 -0.34210176 34.43516845 -0.34210176 36.97192383 1.19433594 C38.35545767 3.62430894 38.38819377 5.39120066 38.3984375 8.18359375 C38.40423828 9.69856445 38.40423828 9.69856445 38.41015625 11.24414062 C38.39855469 12.29794922 38.38695312 13.35175781 38.375 14.4375 C38.38660156 15.48744141 38.39820313 16.53738281 38.41015625 17.61914062 C38.40628906 18.63041016 38.40242188 19.64167969 38.3984375 20.68359375 C38.39505371 21.60712646 38.39166992 22.53065918 38.38818359 23.48217773 C37.91297998 26.56442609 37.31454724 27.8972176 35 30 C32.1809082 30.45410156 32.1809082 30.45410156 28.80078125 30.390625 C27.59228516 30.37773437 26.38378906 30.36484375 25.13867188 30.3515625 C23.87603516 30.31804687 22.61339844 30.28453125 21.3125 30.25 C20.03826172 30.23195312 18.76402344 30.21390625 17.45117188 30.1953125 C14.30046217 30.14811086 11.15013773 30.07636698 8 30 C8 34.29 8 38.58 8 43 C5.36 43 2.72 43 0 43 C0 28.81 0 14.62 0 0 Z " fill="#C1A561" transform="translate(413,224)"/>
<path d="M0 0 C9 0 9 0 11.4609375 1.87890625 C12.09257813 2.76449219 12.72421875 3.65007812 13.375 4.5625 C14.10332031 5.54992187 14.83164062 6.53734375 15.58203125 7.5546875 C15.96439941 8.10092773 16.34676758 8.64716797 16.74072266 9.20996094 C18.58335802 11.82923245 20.50442017 14.38891928 22.41674805 16.95751953 C24.63067806 19.95737664 26.81203056 22.98115609 29 26 C29.33 17.42 29.66 8.84 30 0 C32.97 0 35.94 0 39 0 C39 14.19 39 28.38 39 43 C30 43 30 43 27.78833008 41.47460938 C27.28712646 40.77142578 26.78592285 40.06824219 26.26953125 39.34375 C25.69396484 38.56773437 25.11839844 37.79171875 24.52539062 36.9921875 C23.96013672 36.16976562 23.39488281 35.34734375 22.8125 34.5 C22.23564453 33.70851563 21.65878906 32.91703125 21.06445312 32.1015625 C19.97087946 30.59743638 18.88888395 29.08476033 17.82348633 27.56054688 C15.28218436 23.99204038 12.62855161 20.50473547 10 17 C9.67 25.58 9.34 34.16 9 43 C6.03 43 3.06 43 0 43 C0 28.81 0 14.62 0 0 Z " fill="#D7C87F" transform="translate(501,224)"/>
<path d="M0 0 C7.29236045 3.71767395 11.56260818 9.62532455 14.125 17.3125 C14.21747381 18.78936111 14.25499071 20.27025501 14.25 21.75 C14.25386719 22.89275391 14.25386719 22.89275391 14.2578125 24.05859375 C14.12776015 26.26565859 13.73356199 28.19219276 13.125 30.3125 C2.27505451 31.12455413 -7.43469251 28.27175129 -17.5625 24.6875 C-22.85053251 22.83364952 -28.3459201 22.10771454 -33.875 21.3125 C-32.41128413 12.64576132 -29.42917706 7.37086164 -22.75390625 1.609375 C-15.9588981 -3.08073457 -7.48923595 -3.09338006 0 0 Z " fill="#070705" transform="translate(221.875,208.6875)"/>
<path d="M0 0 C1.8253125 0.3403125 1.8253125 0.3403125 3.6875 0.6875 C4.1825 3.1625 4.1825 3.1625 4.6875 5.6875 C3.6975 6.0175 2.7075 6.3475 1.6875 6.6875 C1.543125 7.30625 1.39875 7.925 1.25 8.5625 C0.47966842 11.47264153 -0.80702552 12.08678019 -3.3125 13.6875 C-4.116875 14.1 -4.92125 14.5125 -5.75 14.9375 C-8.33290583 16.70143569 -9.01824949 17.71221564 -10.5625 20.3125 C-12.7125 23.5375 -12.7125 23.5375 -15.3125 24.1875 C-16.84689954 24.27274442 -18.38222491 24.34240704 -19.91796875 24.3984375 C-24.27668781 24.92461239 -27.66961528 27.36631172 -31.3125 29.6875 C-31.92351562 30.07035156 -32.53453125 30.45320313 -33.1640625 30.84765625 C-34.42742432 31.64061739 -35.68904859 32.43635141 -36.94921875 33.234375 C-42.31698145 36.53488363 -47.81695784 39.60666576 -53.3125 42.6875 C-54.15039062 43.17347656 -54.98828125 43.65945312 -55.8515625 44.16015625 C-57.9375 45.3125 -57.9375 45.3125 -61.3125 46.6875 C-63.5234375 45.7734375 -63.5234375 45.7734375 -65.3125 44.6875 C-65.3125 44.0275 -65.3125 43.3675 -65.3125 42.6875 C-66.3025 42.3575 -67.2925 42.0275 -68.3125 41.6875 C-69.21360078 38.73844291 -69.59023867 37.27565249 -68.25 34.4375 C-65.6875579 32.12303617 -63.7035909 32.20920629 -60.3125 31.6875 C-55.36454792 29.6284796 -52.88485507 27.44635688 -50.3125 22.6875 C-47.3125 21.6875 -47.3125 21.6875 -44.8125 22.3125 C-42.33315315 22.97618808 -42.33315315 22.97618808 -40.6875 21.5625 C-39.20365753 19.62515561 -39.20365753 19.62515561 -37.875 17.0625 C-36.3125 14.6875 -36.3125 14.6875 -34.25 13.8125 C-32.3125 13.6875 -32.3125 13.6875 -30.3125 14.6875 C-28.19900942 13.66707028 -28.19900942 13.66707028 -25.875 12.125 C-21.28625371 9.26534651 -16.61979681 6.63661188 -11.85546875 4.08203125 C-9.26720398 2.70906671 -9.26720398 2.70906671 -6.7578125 0.9921875 C-4.05099636 -0.45202431 -2.96063406 -0.55198262 0 0 Z " fill="#070707" transform="translate(138.3125,32.3125)"/>
<path d="M0 0 C0.99 0.495 0.99 0.495 2 1 C2.44723487 4.80149635 1.77117373 7.32375359 -0.45703125 10.4609375 C-3.10403626 13.10124123 -6.36279498 14.69949514 -9.66015625 16.41015625 C-12.39360837 18.26744342 -13.37660682 20.16484325 -15 23 C-17.8077545 24.22076283 -20.35836547 24.89868928 -23.375 25.375 C-27.23347852 26.29368536 -30.5022975 28.16884987 -34 30 C-35.6396875 30.7734375 -35.6396875 30.7734375 -37.3125 31.5625 C-39.94833226 32.79941394 -39.94833226 32.79941394 -41.4453125 34.4765625 C-43.55185331 36.54076078 -46.03934791 37.56443711 -48.6796875 38.81640625 C-52.13779453 40.58039014 -55.35662047 42.70771352 -58.60546875 44.828125 C-61.34963269 46.17110898 -62.98275682 46.38708054 -66 46 C-68.8125 43.875 -68.8125 43.875 -71 41 C-71.4375 37.8125 -71.4375 37.8125 -71 35 C-70.34 34.34 -69.68 33.68 -69 33 C-67.84564453 33.00580078 -67.84564453 33.00580078 -66.66796875 33.01171875 C-62.13163594 32.99179342 -58.5811351 30.65349167 -55 28 C-53.66701026 25.38181544 -53.66701026 25.38181544 -53 23 C-50.63368262 21.89571856 -49.49072396 21.84664876 -47 22.625 C-44.90585627 23.23253169 -44.90585627 23.23253169 -42.875 21.875 C-40.82628235 20.08194229 -40.82628235 20.08194229 -40 17.375 C-39 15 -39 15 -37.0625 14.125 C-35 14 -35 14 -32 15 C-31.01 14.34 -30.02 13.68 -29 13 C-28.01 13 -27.02 13 -26 13 C-26 12.34 -26 11.68 -26 11 C-23 9 -23 9 -19 9 C-19 8.34 -19 7.68 -19 7 C-16 5 -16 5 -12 5 C-12 4.34 -12 3.68 -12 3 C-8.03450872 -0.12432647 -4.95687553 -0.37410381 0 0 Z " fill="#070707" transform="translate(610,315)"/>
<path d="M0 0 C0.33 0 0.66 0 1 0 C1 14.19 1 28.38 1 43 C3.64 43 6.28 43 9 43 C9 38.71 9 34.42 9 30 C9.33 30 9.66 30 10 30 C10 31.65 10 33.3 10 35 C10.99 35 11.98 35 13 35 C13.99 36.98 13.99 36.98 15 39 C14.566875 39.391875 14.13375 39.78375 13.6875 40.1875 C11.8711821 41.97898715 11.8711821 41.97898715 10.6875 44.5 C8.55913028 47.65314033 6.4441955 48.49316447 3 50 C-0.20328895 52.13552597 -1.12108473 53.73232126 -3 57 C-3.66 57.66 -4.32 58.32 -5 59 C-5.969375 58.9175 -6.93875 58.835 -7.9375 58.75 C-15.90756846 58.51802296 -23.70130509 65.2982614 -29.9296875 69.703125 C-32 71 -32 71 -34.3515625 71.91015625 C-38.27633283 73.52521661 -41.69493074 75.94991771 -45.18359375 78.34179688 C-47.87455282 80.08617152 -49.51370876 81.02751294 -52.76171875 80.84375 C-55.72858031 79.72535192 -57.12793552 78.56542169 -59 76 C-59.44922076 72.85545467 -59.56034621 70.95588471 -57.9375 68.1875 C-55.12887392 66.46608402 -52.23764155 66.45440583 -49 66 C-46.73545927 64.53228729 -46.73545927 64.53228729 -45 63 C-44.34 63 -43.68 63 -43 63 C-42.67 61.35 -42.34 59.7 -42 58 C-41.0925 57.855625 -40.185 57.71125 -39.25 57.5625 C-35.68948621 56.94625723 -32.42512503 56.14170834 -29 55 C-28.67 53.35 -28.34 51.7 -28 50 C-27.154375 49.87625 -26.30875 49.7525 -25.4375 49.625 C-19.06497029 48.46635823 -15.02876264 47.07737511 -10 43 C-8.68 43 -7.36 43 -6 43 C-6 40.03 -6 37.06 -6 34 C-5.67 34 -5.34 34 -5 34 C-5 35.98 -5 37.96 -5 40 C-3.02 39.505 -3.02 39.505 -1 39 C-0.67 26.13 -0.34 13.26 0 0 Z " fill="#0B0A08" transform="translate(412,224)"/>
<path d="M0 0 C1.47471808 0.69968251 2.92672513 1.44825179 4.359375 2.23046875 C5.6429187 2.92922119 5.6429187 2.92922119 6.95239258 3.64208984 C7.87560303 4.1520752 8.79881348 4.66206055 9.75 5.1875 C10.72155029 5.72068848 11.69310059 6.25387695 12.6940918 6.80322266 C20.79663448 11.27676474 28.79273012 15.92304718 36.77050781 20.61450195 C48.08112795 27.25410484 59.53442046 33.6325085 71 40 C71 40.66 71 41.32 71 42 C66.99051247 41.41205623 64.15688559 40.15063548 60.68359375 38.0859375 C59.67103516 37.48910156 58.65847656 36.89226562 57.61523438 36.27734375 C56.56658203 35.64957031 55.51792969 35.02179688 54.4375 34.375 C53.41591797 33.77042969 52.39433594 33.16585937 51.34179688 32.54296875 C49.27317925 31.31876475 47.20596302 30.09218971 45.14013672 28.86328125 C37.60513016 24.39219044 30.06031291 19.95426678 22.33203125 15.82421875 C19.55298295 14.30274682 16.81292246 12.73656083 14.07421875 11.14453125 C13.18927734 10.63825195 12.30433594 10.13197266 11.39257812 9.61035156 C9.61422901 8.59277635 7.84308197 7.56249067 6.08007812 6.51855469 C1.28871247 3.79086836 1.28871247 3.79086836 -4.05859375 2.86328125 C-8.2700408 4.49081258 -11.93733996 6.72296298 -15.75 9.125 C-17.53507252 10.2236091 -19.32160619 11.31984656 -21.109375 12.4140625 C-22.06005859 12.99704102 -23.01074219 13.58001953 -23.99023438 14.18066406 C-29.27562047 17.37556163 -34.64045875 20.43171391 -40 23.5 C-49.08803163 28.70972955 -58.11103356 34.00961462 -67.03515625 39.49609375 C-67.79699219 39.96015625 -68.55882812 40.42421875 -69.34375 40.90234375 C-70.33665039 41.51323853 -70.33665039 41.51323853 -71.34960938 42.13647461 C-73 43 -73 43 -75 43 C-74.95795087 45.54823452 -74.91553737 48.09646224 -74.87271118 50.64468384 C-74.83463041 52.92191415 -74.79727646 55.19915672 -74.7605896 57.47640991 C-74.65681727 63.75843134 -74.53370259 70.03917348 -74.37524414 76.32006836 C-73.84779685 98.08823006 -73.84779685 98.08823006 -74.5546875 107.6171875 C-75.65128418 119.16461011 -75.65128418 119.16461011 -71.03662109 129.26416016 C-65.45098971 133.826069 -59.13261847 136.63165846 -52.53466797 139.43115234 C-46.52358664 142.09914576 -40.89455699 145.43177999 -35.1875 148.6875 C-32.92974576 149.9334578 -30.67065381 151.17699502 -28.41015625 152.41796875 C-24.31214444 154.68702473 -20.26068481 157.01225986 -16.24609375 159.42578125 C-15.37380127 159.94760986 -14.50150879 160.46943848 -13.6027832 161.00708008 C-12.00115769 161.97209535 -10.40663562 162.94904434 -8.82104492 163.94018555 C-4.84616645 166.37713465 -4.84616645 166.37713465 -0.32421875 166.98046875 C2.43144906 165.81799376 4.79989736 164.44239023 7.3125 162.8125 C13.45610745 158.9112369 19.70593143 155.21552399 26 151.5625 C32.96875362 147.51785934 39.92697334 143.45811942 46.859375 139.3515625 C48.84064083 138.18051259 50.82214036 137.0098591 52.80371094 135.83932495 C54.09511392 135.07506531 55.38549081 134.30906901 56.67480469 133.54129028 C58.48368276 132.46439116 60.29611869 131.39372454 62.109375 130.32421875 C63.15061523 129.70635498 64.19185547 129.08849121 65.26464844 128.4519043 C67.58387875 127.22087407 69.43694155 126.45900374 72 126 C72 126.66 72 127.32 72 128 C70.39306641 129.18237305 70.39306641 129.18237305 68.1015625 130.51171875 C66.81390991 131.26569946 66.81390991 131.26569946 65.50024414 132.03491211 C64.07699829 132.85294312 64.07699829 132.85294312 62.625 133.6875 C61.64200928 134.26056885 60.65901855 134.8336377 59.64624023 135.42407227 C54.29551396 138.53759619 48.92594731 141.61838289 43.55859375 144.703125 C42.48891357 145.31841064 41.4192334 145.93369629 40.31713867 146.56762695 C38.14325339 147.81657957 35.96762416 149.0625015 33.7902832 150.30541992 C28.28285191 153.4641964 22.84511499 156.69502602 17.484375 160.09765625 C16.44531006 160.75258057 15.40624512 161.40750488 14.33569336 162.08227539 C12.37010748 163.32912002 10.41448488 164.59186132 8.47094727 165.87280273 C2.00609269 169.96380196 2.00609269 169.96380196 -2.69140625 170.1328125 C-6.54018546 168.81504866 -9.83442808 167.03966753 -13.25 164.875 C-14.74788831 163.96007546 -16.24805403 163.04887309 -17.75 162.140625 C-18.99136719 161.38942383 -18.99136719 161.38942383 -20.2578125 160.62304688 C-25.52259017 157.50692847 -30.89290174 154.57853755 -36.25 151.625 C-45.67269641 146.41867499 -55.05600025 141.15292667 -64.37792969 135.76806641 C-65.1671582 135.31351074 -65.95638672 134.85895508 -66.76953125 134.390625 C-67.44604736 133.99907227 -68.12256348 133.60751953 -68.81958008 133.20410156 C-71.5066677 131.72020097 -74.25199752 130.36717066 -77 129 C-77.46506424 117.86566614 -77.8195407 106.7336663 -78.03624344 95.59157181 C-78.14030882 90.4161024 -78.28114037 85.24730824 -78.50878906 80.07568359 C-79.93425405 46.81930661 -79.93425405 46.81930661 -75.20404053 39.05026245 C-70.70325233 34.63527072 -65.52685114 32.59992937 -59.55932617 30.82672119 C-55.82637338 29.62089162 -52.75864912 27.67184745 -49.4765625 25.56640625 C-47.19329022 24.2307756 -44.90943815 22.89613558 -42.625 21.5625 C-40.15196122 20.11653887 -37.67943682 18.66969977 -35.20703125 17.22265625 C-34.60120712 16.86817413 -33.995383 16.51369202 -33.37120056 16.14846802 C-26.40784065 12.07179204 -19.46384281 7.96238378 -12.52392578 3.84594727 C-11.68716309 3.35022217 -10.85040039 2.85449707 -9.98828125 2.34375 C-9.26165283 1.91255859 -8.53502441 1.48136719 -7.78637695 1.03710938 C-4.59531345 -0.81551298 -3.53788772 -1.15636962 0 0 Z " fill="#937540" transform="translate(213,161)"/>
<path d="M0 0 C0.66 1.32 1.32 2.64 2 4 C1.566875 4.391875 1.13375 4.78375 0.6875 5.1875 C-1.1288179 6.97898715 -1.1288179 6.97898715 -2.3125 9.5 C-4.44086972 12.65314033 -6.5558045 13.49316447 -10 15 C-13.20328895 17.13552597 -14.12108473 18.73232126 -16 22 C-16.66 22.66 -17.32 23.32 -18 24 C-18.969375 23.9175 -19.93875 23.835 -20.9375 23.75 C-28.90756846 23.51802296 -36.70130509 30.2982614 -42.9296875 34.703125 C-45 36 -45 36 -50 38 C-50 32.72 -50 27.44 -50 22 C-48.35 21.67 -46.7 21.34 -45 21 C-44.01 20.67 -43.02 20.34 -42 20 C-41.67 18.35 -41.34 16.7 -41 15 C-39.7315625 14.814375 -39.7315625 14.814375 -38.4375 14.625 C-32.14782327 13.48142241 -27.86308045 12.22320145 -23 8 C-20.51083757 6.38204442 -18.20373645 5.07950691 -15.4375 4 C-12.95354046 3.14772117 -12.95354046 3.14772117 -11.25 1.375 C-7.70939973 -0.78870017 -4.04741646 -0.2335048 0 0 Z " fill="#070707" transform="translate(50,259)"/>
<path d="M0 0 C0.99 0 1.98 0 3 0 C3.3403125 0.71285156 3.680625 1.42570313 4.03125 2.16015625 C9.16292124 12.30066618 15.20935783 18.22733187 26 22 C35.30704023 24.81859552 45.42683387 23.29816842 54 19 C60.65470135 14.38494581 65.08163497 9.05780842 68.74609375 1.87109375 C69.36677734 0.94490234 69.36677734 0.94490234 70 0 C70.99 0 71.98 0 73 0 C72.00588307 8.56183206 67.0615697 14.64721083 60.4375 19.9375 C53.06426611 25.20763026 46.94644692 26.70773544 38 28 C38 31.96 38 35.92 38 40 C43.94 40 49.88 40 56 40 C56 41.32 56 42.64 56 44 C42.8 44 29.6 44 16 44 C16 42.68 16 41.36 16 40 C21.94 40 27.88 40 34 40 C34 36.04 34 32.08 34 28 C32.329375 27.87625 32.329375 27.87625 30.625 27.75 C21.51115154 26.5605383 13.46620975 22.52597139 7 16 C-0.21330296 6.4454186 -0.21330296 6.4454186 -1 1 C-0.67 0.67 -0.34 0.34 0 0 Z " fill="#D3C57D" transform="translate(176,242)"/>
<path d="M0 0 C2.94887797 0.50842724 5.37371875 1.59306362 8 3 C4.82767828 5.48004048 1.51916538 7.56168725 -1.9375 9.625 C-2.56954346 10.00269531 -3.20158691 10.38039063 -3.8527832 10.76953125 C-8.37235383 13.46129248 -12.91092006 16.12008331 -17.453125 18.7734375 C-19.24671981 19.8213334 -21.0403031 20.86924898 -22.8338623 21.91720581 C-24.07108243 22.63992242 -25.30846895 23.36235425 -26.54602051 24.08450317 C-33.7457723 28.28795599 -40.91615153 32.53343503 -48.03125 36.87890625 C-48.67842484 37.27395355 -49.32559967 37.66900085 -49.99238586 38.07601929 C-53.11292736 39.98295521 -56.2291903 41.89652336 -59.34057617 43.81835938 C-60.44892822 44.49833984 -61.55728027 45.17832031 -62.69921875 45.87890625 C-63.67721436 46.4829126 -64.65520996 47.08691895 -65.6628418 47.70922852 C-68 49 -68 49 -70 49 C-69.505 46.03 -69.505 46.03 -69 43 C-69.66 42.67 -70.32 42.34 -71 42 C-70.08605469 41.46375 -69.17210937 40.9275 -68.23046875 40.375 C-66.88273367 39.58346755 -65.53508634 38.79178566 -64.1875 38 C-63.43976318 37.56067139 -62.69202637 37.12134277 -61.92163086 36.66870117 C-57.1988227 33.89066195 -52.48309579 31.10106017 -47.7734375 28.30078125 C-34.88864832 20.64209675 -21.97033929 13.05427575 -8.96118164 5.60864258 C-7.41418579 4.7214856 -7.41418579 4.7214856 -5.8359375 3.81640625 C-4.46767822 3.03438843 -4.46767822 3.03438843 -3.07177734 2.23657227 C-1.08195318 1.16354454 -1.08195318 1.16354454 0 0 Z " fill="#BFA664" transform="translate(287,290)"/>
<path d="M0 0 C1.2110497 3.43130748 1.13424028 4.71400983 -0.4375 8.0625 C-3.20157786 11.23107706 -5.34014296 12.32857067 -9.09375 13.98828125 C-11.81423022 15.43214268 -13.31413659 17.47120489 -15 20 C-12.36 20 -9.72 20 -7 20 C-7 20.33 -7 20.66 -7 21 C-9.97 21 -12.94 21 -16 21 C-16 35.19 -16 49.38 -16 64 C-16.33 64 -16.66 64 -17 64 C-17 50.47 -17 36.94 -17 23 C-18.65 23.33 -20.3 23.66 -22 24 C-22 23.01 -22 22.02 -22 21 C-30.58 21 -39.16 21 -48 21 C-48 20.67 -48 20.34 -48 20 C-47.236875 19.938125 -46.47375 19.87625 -45.6875 19.8125 C-42.13966123 18.73989758 -41.79594408 17.12338101 -40 14 C-37.4800123 12.976255 -35.75035323 13 -33 13 C-30.99690671 12.68578929 -28.99628664 12.3548954 -27 12 C-27 11.34 -27 10.68 -27 10 C-26.31035156 9.62488281 -25.62070312 9.24976563 -24.91015625 8.86328125 C-23.97042969 8.35152344 -23.03070313 7.83976563 -22.0625 7.3125 C-21.05832031 6.77109375 -20.05414063 6.2296875 -19.01953125 5.671875 C-17.15920007 4.64183394 -15.31765258 3.57580914 -13.51171875 2.453125 C-8.47347656 -0.64465431 -5.77701806 -1.59789861 0 0 Z " fill="#0B0A09" transform="translate(517,203)"/>
<path d="M0 0 C6.435 3.465 6.435 3.465 13 7 C9.66479006 10.33520994 6.5951414 11.75939864 2.375 13.71875 C0.09557802 14.94843817 -1.22137401 16.16225071 -3 18 C-4.88345966 18.9582514 -6.77025644 19.91101182 -8.6796875 20.81640625 C-12.13779453 22.58039014 -15.35662047 24.70771352 -18.60546875 26.828125 C-21.34963269 28.17110898 -22.98275682 28.38708054 -26 28 C-28.8125 25.875 -28.8125 25.875 -31 23 C-31.4375 19.8125 -31.4375 19.8125 -31 17 C-30.34 16.34 -29.68 15.68 -29 15 C-27.84564453 15.00580078 -27.84564453 15.00580078 -26.66796875 15.01171875 C-22.13163594 14.99179342 -18.5811351 12.65349167 -15 10 C-13.66701026 7.38181544 -13.66701026 7.38181544 -13 5 C-11.125 4.125 -11.125 4.125 -9 4 C-8.360625 4.2475 -7.72125 4.495 -7.0625 4.75 C-6.381875 4.8325 -5.70125 4.915 -5 5 C-3.35 3.35 -1.7 1.7 0 0 Z " fill="#080807" transform="translate(195,333)"/>
<path d="M0 0 C2.30074947 0.84416375 4.36658895 1.85865812 6.51904297 3.03222656 C7.3861792 3.5038623 8.25331543 3.97549805 9.14672852 4.46142578 C10.07654541 4.97463379 11.0063623 5.4878418 11.96435547 6.01660156 C12.93091064 6.54656738 13.89746582 7.0765332 14.89331055 7.62255859 C22.82606976 12.0022163 30.64533134 16.56249713 38.41503906 21.22460938 C43.75897399 24.42587602 49.16246226 27.4773359 54.6418457 30.44091797 C57.37941664 31.923712 60.09087158 33.44220843 62.77685547 35.01660156 C63.60572266 35.49613281 64.43458984 35.97566406 65.28857422 36.46972656 C65.88283203 36.89769531 66.47708984 37.32566406 67.08935547 37.76660156 C67.08935547 38.42660156 67.08935547 39.08660156 67.08935547 39.76660156 C64.08935547 41.76660156 64.08935547 41.76660156 61.56201172 41.75488281 C56.42045719 40.29165076 52.12219102 37.64455929 47.52685547 34.95410156 C46.51397461 34.37096191 45.50109375 33.78782227 44.45751953 33.18701172 C42.35666307 31.97704132 40.25787921 30.76346551 38.16113281 29.54638672 C34.42977541 27.38444144 30.68297468 25.25048373 26.93408203 23.11914062 C24.35846502 21.65248329 21.78797548 20.17716655 19.21826172 18.70019531 C15.67725288 16.66712907 12.1209561 14.66428244 8.55419922 12.67675781 C6.79505701 11.68592144 5.0359414 10.69503784 3.27685547 9.70410156 C2.03887207 9.02420166 2.03887207 9.02420166 0.77587891 8.33056641 C0.02725586 7.90598145 -0.72136719 7.48139648 -1.49267578 7.04394531 C-2.15501221 6.67519287 -2.81734863 6.30644043 -3.49975586 5.92651367 C-3.96534912 5.54374268 -4.43094238 5.16097168 -4.91064453 4.76660156 C-4.91064453 3.77660156 -4.91064453 2.78660156 -4.91064453 1.76660156 C-1.91064453 -0.23339844 -1.91064453 -0.23339844 0 0 Z " fill="#CEBB74" transform="translate(225.91064453125,158.2333984375)"/>
<path d="M0 0 C6.90578802 -0.43717767 12.20308349 1.10551038 18.6875 3.375 C26.79220206 6.09666763 34.45550969 8.21003769 43 9 C41.09664719 12.53395101 39.52599786 14.70248111 36.0625 16.75 C35.39347656 17.15734375 34.72445312 17.5646875 34.03515625 17.984375 C28.25673513 20.86804005 20.81487912 21.1817134 14.6796875 19.28125 C7.62479438 15.95498861 3.38706377 10.89957436 0 4 C0 2.68 0 1.36 0 0 Z " fill="#030302" transform="translate(189,234)"/>
<path d="M0 0 C12.06713446 -0.91940072 12.06713446 -0.91940072 16.48828125 1.18359375 C20.0413463 4.48654656 21.11658636 7.56302904 21.41015625 12.31640625 C21.54493222 16.58628681 21.23534746 20.69650353 21 25 C14.07 25 7.14 25 0 25 C0 16.75 0 8.5 0 0 Z " fill="#020100" transform="translate(288,233)"/>
<path d="M0 0 C9.24 0 18.48 0 28 0 C18 8 18 8 13 8 C13 8.66 13 9.32 13 10 C11.4221875 10.7425 11.4221875 10.7425 9.8125 11.5 C4.6144424 14.05261757 -0.14021348 17.28035797 -4.94921875 20.48828125 C-8 22 -8 22 -10.75 21.8359375 C-13.73002928 20.72877384 -15.12333084 19.57173181 -17 17 C-17.375 13.875 -17.375 13.875 -17 11 C-14.81926243 8.81926243 -13.5826082 8.39529397 -10.6875 7.5 C-9.48673828 7.11134766 -9.48673828 7.11134766 -8.26171875 6.71484375 C-6.50883312 6.1608229 -4.75467252 5.61083516 -3 5.0625 C-2.34 4.711875 -1.68 4.36125 -1 4 C-0.67 2.68 -0.34 1.36 0 0 Z " fill="#070707" transform="translate(276,0)"/>
<path d="M0 0 C9.24 0 18.48 0 28 0 C24.63141952 2.69486438 22.111789 4.62630945 18.4375 6.5625 C15.4013878 8.16737733 12.74307058 9.93982775 10 12 C9.236875 12.28875 8.47375 12.5775 7.6875 12.875 C5.28020979 13.88270288 3.63941322 14.90497593 1.5625 16.4375 C-6.10834759 22.04503934 -6.10834759 22.04503934 -10.625 21.9375 C-13.63747948 20.74836336 -15.08579729 19.62316667 -17 17 C-17.375 13.875 -17.375 13.875 -17 11 C-14.54078984 8.54078984 -12.3407616 8.33250135 -9.03515625 7.55859375 C-6.2952404 6.80656311 -4.25384522 5.7235287 -2 4 C-1.34 2.68 -0.68 1.36 0 0 Z " fill="#070707" transform="translate(370,0)"/>
<path d="M0 0 C0.99 0 1.98 0 3 0 C3 0.66 3 1.32 3 2 C1.39306641 3.18237305 1.39306641 3.18237305 -0.8984375 4.51171875 C-2.18609009 5.26569946 -2.18609009 5.26569946 -3.49975586 6.03491211 C-4.44858643 6.58026611 -5.39741699 7.12562012 -6.375 7.6875 C-7.35799072 8.26056885 -8.34098145 8.8336377 -9.35375977 9.42407227 C-14.70448604 12.53759619 -20.07405269 15.61838289 -25.44140625 18.703125 C-26.51108643 19.31841064 -27.5807666 19.93369629 -28.68286133 20.56762695 C-30.85674661 21.81657957 -33.03237584 23.0625015 -35.2097168 24.30541992 C-40.71714809 27.4641964 -46.15488501 30.69502602 -51.515625 34.09765625 C-52.55468994 34.75258057 -53.59375488 35.40750488 -54.66430664 36.08227539 C-56.62989252 37.32912002 -58.58551512 38.59186132 -60.52905273 39.87280273 C-66.99390731 43.96380196 -66.99390731 43.96380196 -71.69140625 44.1328125 C-75.54018546 42.81504866 -78.83442808 41.03966753 -82.25 38.875 C-83.74788831 37.96007546 -85.24805403 37.04887309 -86.75 36.140625 C-87.57757813 35.63982422 -88.40515625 35.13902344 -89.2578125 34.62304688 C-94.52259716 31.50692433 -99.89300033 28.57872943 -105.25 25.625 C-113.86250769 20.86275434 -122.4552469 16.07043089 -131 11.1875 C-131.87172852 10.69008301 -132.74345703 10.19266602 -133.64160156 9.68017578 C-136.82507332 7.85600409 -139.94552941 6.03631373 -143 4 C-143 3.34 -143 2.68 -143 2 C-136.98402431 3.63162069 -131.9182705 6.71999771 -126.5625 9.8125 C-124.49619663 10.99366958 -122.42978737 12.17465393 -120.36328125 13.35546875 C-119.30834473 13.96052246 -118.2534082 14.56557617 -117.16650391 15.18896484 C-114.13143905 16.92482537 -111.08930202 18.64728632 -108.04296875 20.36328125 C-107.08173096 20.90476807 -106.12049316 21.44625488 -105.13012695 22.00415039 C-103.2164399 23.08111643 -101.30221777 24.15713223 -99.38745117 25.23217773 C-94.72248844 27.86036539 -90.09129163 30.52868401 -85.5078125 33.296875 C-84.2079541 34.07490479 -84.2079541 34.07490479 -82.88183594 34.86865234 C-81.25515384 35.84611909 -79.63548575 36.8353914 -78.02441406 37.83837891 C-73.94261835 40.33802643 -73.94261835 40.33802643 -69.30859375 40.98828125 C-66.56681222 39.81455752 -64.19304288 38.43781067 -61.6875 36.8125 C-55.54386544 32.91121969 -49.29369487 29.21620489 -43 25.5625 C-40.93615649 24.36205039 -38.872356 23.1615268 -36.80859375 21.9609375 C-35.17833252 21.01299316 -35.17833252 21.01299316 -33.51513672 20.04589844 C-27.68219267 16.65237381 -21.85561116 13.24797266 -16.03149414 9.83932495 C-14.72098091 9.07269909 -13.41010941 8.30668534 -12.09887695 7.54129028 C-10.26429364 6.47036717 -8.43084282 5.39753052 -6.59765625 4.32421875 C-5.01223022 3.3974231 -5.01223022 3.3974231 -3.39477539 2.4519043 C-1.12849331 1.20784856 -1.12849331 1.20784856 0 0 Z " fill="#BCAC6D" transform="translate(282,287)"/>
<path d="M0 0 C2.875 1.5625 2.875 1.5625 5 3 C4 5 4 5 2.1875 5.625 C0 6 0 6 -4 6 C-6.06703225 6.86249418 -6.06703225 6.86249418 -8.125 8.125 C-8.91390625 8.58261719 -9.7028125 9.04023438 -10.515625 9.51171875 C-13.80978769 11.48510866 -17.09862729 13.46708102 -20.3828125 15.45703125 C-24.04037131 17.61335323 -27.7804693 19.60609625 -31.5234375 21.609375 C-33.58699205 22.76809018 -35.46613817 23.98495702 -37.375 25.375 C-40.30059039 27.18607977 -41.63255142 27.62031948 -45 27 C-46.35838847 26.03430929 -47.69560397 25.03746266 -49 24 C-48.40799805 23.6690332 -47.81599609 23.33806641 -47.20605469 22.99707031 C-44.38560736 21.41783719 -41.56767428 19.83417544 -38.75 18.25 C-37.71689697 17.6710498 -36.68379395 17.09209961 -35.61938477 16.49560547 C-30.42634856 13.56819556 -25.28443843 10.59203605 -20.23046875 7.4296875 C-19.33682617 6.8737793 -18.44318359 6.31787109 -17.52246094 5.74511719 C-15.83041648 4.68463296 -14.14700256 3.61022105 -12.47363281 2.52050781 C-7.98603363 -0.28306173 -5.32035501 -1.8633136 0 0 Z " fill="#0D0C0A" transform="translate(214,164)"/>
<path d="M0 0 C0.66 0 1.32 0 2 0 C2 24.42 2 48.84 2 74 C3.32 74.33 4.64 74.66 6 75 C7.55703145 75.74634708 9.09088999 76.54197851 10.60546875 77.37109375 C11.49886963 77.85843994 12.39227051 78.34578613 13.31274414 78.84790039 C14.73574829 79.6347522 14.73574829 79.6347522 16.1875 80.4375 C17.65014282 81.24078735 17.65014282 81.24078735 19.14233398 82.06030273 C27.29888281 86.56241937 35.37038369 91.20409585 43.34814453 96.01611328 C44.87065391 96.92295821 46.41688963 97.78964995 47.96484375 98.65234375 C48.63644531 99.09707031 49.30804688 99.54179687 50 100 C50 100.66 50 101.32 50 102 C45.04953543 101.42212476 41.36672923 99.18835932 37.125 96.75 C36.35849121 96.316875 35.59198242 95.88375 34.80224609 95.4375 C33.11906594 94.48542511 31.43767021 93.53019053 29.7578125 92.57226562 C25.74915824 90.28687846 21.73156889 88.01736942 17.71435547 85.74707031 C15.68108154 84.59722771 13.64882578 83.44558249 11.61767578 82.29199219 C10.6842334 81.76250977 9.75079102 81.23302734 8.7890625 80.6875 C7.54697021 79.98173828 7.54697021 79.98173828 6.27978516 79.26171875 C4.21598909 78.11953648 2.10975535 77.05487767 0 76 C0 50.92 0 25.84 0 0 Z " fill="#0D0C08" transform="translate(134,216)"/>
<path d="M0 0 C3.86564461 1.14036516 7.29766422 3.17701872 10.8125 5.125 C11.78832031 5.66382813 12.76414063 6.20265625 13.76953125 6.7578125 C14.50558594 7.16773438 15.24164063 7.57765625 16 8 C15.34 8.99 14.68 9.98 14 11 C13.34 11 12.68 11 12 11 C12 11.66 12 12.32 12 13 C8.59687262 11.94124926 5.98646769 10.99097846 3 9 C-2.33653846 9.21407318 -5.99439891 11.47784862 -10.375 14.25 C-11.0340332 14.65460449 -11.69306641 15.05920898 -12.37207031 15.47607422 C-15.87263334 17.63219308 -19.31555926 19.86516353 -22.75 22.125 C-23.8225 22.74375 -24.895 23.3625 -26 24 C-26.99 23.67 -27.98 23.34 -29 23 C-28.319375 21.88625 -28.319375 21.88625 -27.625 20.75 C-25.99763716 18.21931876 -25.99763716 18.21931876 -25.375 16.10546875 C-23.18426912 12.75091209 -19.86237724 11.39525063 -16.375 9.5625 C-14.91691373 8.77799939 -13.4598688 7.99156005 -12.00390625 7.203125 C-11.30797363 6.82736328 -10.61204102 6.45160156 -9.89501953 6.06445312 C-7.60423151 4.77769252 -5.46262841 3.32048987 -3.3125 1.8125 C-2.219375 1.214375 -1.12625 0.61625 0 0 Z " fill="#B59959" transform="translate(209,149)"/>
<path d="M0 0 C0.33 0 0.66 0 1 0 C1 14.19 1 28.38 1 43 C0.67 43 0.34 43 0 43 C0 35.08 0 27.16 0 19 C-1.711875 20.03125 -3.42375 21.0625 -5.1875 22.125 C-8.10546875 23.8828125 -8.10546875 23.8828125 -11 25 C-14.37949481 24.08312001 -17.05093913 22.97488237 -19 20 C-19.1875 16.3125 -19.1875 16.3125 -19 13 C-14 11 -14 11 -11.5 10.0625 C-6.35403591 7.87546526 -3.63811739 6.01242305 -1 1 C-0.67 0.67 -0.34 0.34 0 0 Z " fill="#090807" transform="translate(278,224)"/>
<path d="M0 0 C7.26 0 14.52 0 22 0 C22 4.29 22 8.58 22 13 C14.74 13 7.48 13 0 13 C0 8.71 0 4.42 0 0 Z " fill="#0F0D07" transform="translate(421,232)"/>
<path d="M0 0 C0.875 2.0625 0.875 2.0625 1 5 C-1.91534402 9.91628125 -5.64147137 13.0239313 -11 15 C-14.96707334 15.35246556 -18.89646371 15.28304367 -22.875 15.1875 C-23.94492187 15.17396484 -25.01484375 15.16042969 -26.1171875 15.14648438 C-28.74531511 15.11128624 -31.37239194 15.06204693 -34 15 C-33.67 14.34 -33.34 13.68 -33 13 C-29.9375 12.375 -29.9375 12.375 -27 12 C-26.67 11.01 -26.34 10.02 -26 9 C-24.03120677 7.93988057 -22.02081924 6.95723017 -20 6 C-17.40424935 4.46431522 -14.8356567 2.88929953 -12.26953125 1.3046875 C-7.8105849 -1.25863105 -4.96674494 -0.84340952 0 0 Z " fill="#090909" transform="translate(517,486)"/>
<path d="M0 0 C0.875 2.0625 0.875 2.0625 1 5 C-1.91534402 9.91628125 -5.64147137 13.0239313 -11 15 C-14.96707334 15.35246556 -18.89646371 15.28304367 -22.875 15.1875 C-23.94492188 15.17396484 -25.01484375 15.16042969 -26.1171875 15.14648438 C-28.74531511 15.11128624 -31.37239194 15.06204693 -34 15 C-33.67 14.34 -33.34 13.68 -33 13 C-29.9375 12.375 -29.9375 12.375 -27 12 C-26.67 11.01 -26.34 10.02 -26 9 C-24.03120677 7.93988057 -22.02081924 6.95723017 -20 6 C-17.40424935 4.46431522 -14.8356567 2.88929953 -12.26953125 1.3046875 C-7.8105849 -1.25863105 -4.96674494 -0.84340952 0 0 Z " fill="#090909" transform="translate(142,486)"/>
<path d="M0 0 C0.495 7.92 0.495 7.92 1 16 C-4 19 -4 19 -6 19 C-6 18.34 -6 17.68 -6 17 C-6.99 17.33 -7.98 17.66 -9 18 C-9.33 19.65 -9.66 21.3 -10 23 C-12.125 23.875 -12.125 23.875 -15 24 C-18.4106414 21.76351384 -20.72060465 19.33488888 -21.5625 15.3125 C-20.88211892 12.51537778 -20.39842921 11.59895281 -18 10 C-17.0925 9.855625 -16.185 9.71125 -15.25 9.5625 C-10.99135792 8.82542733 -8.56980548 7.4498665 -5 5 C-4.12177688 2.91466367 -4.12177688 2.91466367 -4 1 C-2 0 -2 0 0 0 Z " fill="#090908" transform="translate(185,225)"/>
<path d="M0 0 C6.93 0 13.86 0 21 0 C21 3.96 21 7.92 21 12 C14.07 12 7.14 12 0 12 C0 8.04 0 4.08 0 0 Z " fill="#050403" transform="translate(377,233)"/>
<path d="M0 0 C-2.423481 2.423481 -3.64884803 2.55027831 -7 3 C-8.77169645 2.97086897 -10.5430988 2.90724362 -12.3125 2.8125 C-18.70264642 2.77814437 -22.83909499 4.30112983 -27.68359375 8.4375 C-32.24333502 13.16780516 -34.09770765 18.81195489 -36 25 C-34.7625 24.95875 -33.525 24.9175 -32.25 24.875 C-28.98362038 24.86341709 -26.7853053 25.1431298 -24 27 C-25.98 27.33 -27.96 27.66 -30 28 C-30 28.33 -30 28.66 -30 29 C-31.65 29 -33.3 29 -35 29 C-35 29.99 -35 30.98 -35 32 C-36.98 32.495 -36.98 32.495 -39 33 C-39.62000855 22.66652413 -39.54838527 14.34691218 -32.42578125 6.19921875 C-23.59388435 -2.09741167 -11.34799558 -5.04355359 0 0 Z " fill="#AD9051" transform="translate(224,205)"/>
<path d="M0 0 C0 4.29 0 8.58 0 13 C-7.26 13 -14.52 13 -22 13 C-20.88003305 7.40016523 -19.57794904 5.46541394 -15.609375 1.60546875 C-10.64133666 -1.45121352 -5.65416847 -0.47118071 0 0 Z " fill="#0A0804" transform="translate(353,232)"/>
<path d="M0 0 C0 4.29 0 8.58 0 13 C-6.93 13 -13.86 13 -21 13 C-21 7.17731959 -21 7.17731959 -17.8125 3.6875 C-12.37369686 -1.53571094 -7.19371942 -0.59947662 0 0 Z " fill="#040402" transform="translate(486,232)"/>
<path d="M0 0 C6.27 0 12.54 0 19 0 C19.33 1.32 19.66 2.64 20 4 C18.7934375 4.4640625 18.7934375 4.4640625 17.5625 4.9375 C15.10919595 5.76335345 15.10919595 5.76335345 14 7 C16.64 7.33 19.28 7.66 22 8 C22 8.33 22 8.66 22 9 C17.71 9 13.42 9 9 9 C9 17.25 9 25.5 9 34 C8.67 34 8.34 34 8 34 C8 25.09 8 16.18 8 7 C4.2981424 4.7763932 4.2981424 4.7763932 1 5 C1 17.21 1 29.42 1 42 C12.22 42 23.44 42 35 42 C35 42.33 35 42.66 35 43 C23.45 43 11.9 43 0 43 C0 28.81 0 14.62 0 0 Z " fill="#825B29" transform="translate(279,224)"/>
<path d="M0 0 C3.20185317 0.52191702 5.73322947 1.80485332 8.5546875 3.36328125 C9.41707031 3.83830078 10.27945312 4.31332031 11.16796875 4.80273438 C12.06128906 5.30095703 12.95460938 5.79917969 13.875 6.3125 C14.76058594 6.79912109 15.64617187 7.28574219 16.55859375 7.78710938 C26.02297847 13.02707796 26.02297847 13.02707796 30 16 C30 16.66 30 17.32 30 18 C27 20 27 20 24.16357422 19.80883789 C20.83300192 18.95730324 18.35349089 17.77758181 15.3828125 16.05859375 C14.36445313 15.47529297 13.34609375 14.89199219 12.296875 14.29101562 C11.25015625 13.67935547 10.2034375 13.06769531 9.125 12.4375 C8.05507813 11.82197266 6.98515625 11.20644531 5.8828125 10.57226562 C3.25038607 9.05627005 0.62312757 7.53201069 -2 6 C-1.125 1.125 -1.125 1.125 0 0 Z " fill="#E8E093" transform="translate(263,180)"/>
<path d="M0 0 C1.32 0 2.64 0 4 0 C4 3.96 4 7.92 4 12 C9.94 12 15.88 12 22 12 C22 13.32 22 14.64 22 16 C8.8 16 -4.4 16 -18 16 C-18 14.68 -18 13.36 -18 12 C-12.06 12 -6.12 12 0 12 C0 8.04 0 4.08 0 0 Z " fill="#C6AE6B" transform="translate(210,270)"/>
<path d="M0 0 C0.99 0.33 1.98 0.66 3 1 C2.99777939 1.62242584 2.99555878 2.24485168 2.99327087 2.88613892 C2.77384201 44.45534275 2.77384201 44.45534275 4 86 C2.02 86.495 2.02 86.495 0 87 C0 58.29 0 29.58 0 0 Z " fill="#957E49" transform="translate(136,203)"/>
<path d="M0 0 C0.33 1.32 0.66 2.64 1 4 C0.01 4.33 -0.98 4.66 -2 5 C-2.18755859 5.93005859 -2.18755859 5.93005859 -2.37890625 6.87890625 C-3 9 -3 9 -5.21484375 10.52734375 C-7.02683134 11.46583374 -8.83933012 12.40333743 -10.65234375 13.33984375 C-13.418306 15.29580707 -14.05251088 16.80019387 -15 20 C-17.31 20.33 -19.62 20.66 -22 21 C-22 17.04 -22 13.08 -22 9 C-20.22625 8.62875 -18.4525 8.2575 -16.625 7.875 C-10.29700064 6.3193042 -5.34912506 3.65681337 0 0 Z " fill="#13120E" transform="translate(236,261)"/>
<path d="M0 0 C6.01597569 1.63162069 11.0817295 4.71999771 16.4375 7.8125 C18.50380337 8.99366958 20.57021263 10.17465393 22.63671875 11.35546875 C23.69165527 11.96052246 24.7465918 12.56557617 25.83349609 13.18896484 C29.83610707 15.47819909 33.85283369 17.74180008 37.87109375 20.00341797 C41.65605729 22.13534876 45.43503809 24.27774582 49.21337891 26.42138672 C51.09179461 27.48550411 52.97171283 28.54697304 54.85302734 29.60595703 C57.55193832 31.12605485 60.24528538 32.6555819 62.9375 34.1875 C63.75508789 34.64527832 64.57267578 35.10305664 65.41503906 35.57470703 C67.3103469 36.65969011 69.16107781 37.821974 71 39 C71 39.66 71 40.32 71 41 C67.25340741 40.30493588 64.32001444 38.66532524 61.00390625 36.82421875 C60.42275558 36.50303574 59.84160492 36.18185272 59.24284363 35.85093689 C57.34672698 34.8011877 55.45453019 33.74459412 53.5625 32.6875 C52.24719915 31.95663658 50.93176838 31.22600692 49.61621094 30.49560547 C39.49926543 24.87026104 29.41810244 19.18264399 19.39892578 13.38476562 C16.91528873 11.95110092 14.42465559 10.5300925 11.93359375 9.109375 C10.35123559 8.19848432 8.76918913 7.2870519 7.1875 6.375 C6.09163574 5.75359131 6.09163574 5.75359131 4.97363281 5.11962891 C3.28173472 4.13607325 1.63489641 3.07564613 0 2 C0 1.34 0 0.68 0 0 Z " fill="#C5B977" transform="translate(139,289)"/>
<path d="M0 0 C0.66 0.33 1.32 0.66 2 1 C1.01 2.32 0.02 3.64 -1 5 C0.32 4.67 1.64 4.34 3 4 C3.66 5.65 4.32 7.3 5 9 C4.50628906 9.44730469 4.01257813 9.89460937 3.50390625 10.35546875 C-1.41263727 14.77954779 -1.41263727 14.77954779 -3 21 C-3.33 21 -3.66 21 -4 21 C-4.66 18.36 -5.32 15.72 -6 13 C-7.32 13 -8.64 13 -10 13 C-10.33 22.57 -10.66 32.14 -11 42 C-8.69 42 -6.38 42 -4 42 C-4 38.04 -4 34.08 -4 30 C-3.67 30 -3.34 30 -3 30 C-3 34.29 -3 38.58 -3 43 C-5.97 43 -8.94 43 -12 43 C-14.08641975 13.90781893 -14.08641975 13.90781893 -9.328125 7.26953125 C-6.55591451 4.29011515 -3.50444718 2.04947581 0 0 Z " fill="#B5A163" transform="translate(468,224)"/>
<path d="M0 0 C1 1 1 1 1.0625 3.5625 C1.041875 4.366875 1.02125 5.17125 1 6 C0.01 6.33 -0.98 6.66 -2 7 C-2.12375 7.61875 -2.2475 8.2375 -2.375 8.875 C-3 11 -3 11 -5.14453125 12.80859375 C-8 14 -8 14 -11.11328125 12.98046875 C-12.16902344 12.38878906 -13.22476563 11.79710937 -14.3125 11.1875 C-15.38113281 10.60355469 -16.44976562 10.01960937 -17.55078125 9.41796875 C-18.35902344 8.95003906 -19.16726562 8.48210937 -20 8 C-18.75 6.5 -18.75 6.5 -17 5 C-15.68 5 -14.36 5 -13 5 C-12.67 4.01 -12.34 3.02 -12 2 C-8.3609431 -0.76568324 -4.35626011 -0.2142423 0 0 Z " fill="#0B0B0A" transform="translate(236,145)"/>
<path d="M0 0 C2.4375 1.5 2.4375 1.5 4 3 C4 3.66 4 4.32 4 5 C2.02 5.33 0.04 5.66 -2 6 C-1.67 4.68 -1.34 3.36 -1 2 C-7.89309166 5.71382898 -14.72087825 9.52570654 -21.49072266 13.45898438 C-25.89292078 16 -25.89292078 16 -27 16 C-27 13.36 -27 10.72 -27 8 C-22.46465087 6.1325033 -17.83845311 4.6128177 -13.1875 3.0625 C-12.1046875 2.5365625 -12.1046875 2.5365625 -11 2 C-10.67 1.01 -10.34 0.02 -10 -1 C-5.99128491 -2.33623836 -3.93947102 -1.38227053 0 0 Z " fill="#0B0B09" transform="translate(286,285)"/>
<path d="M0 0 C0.99 0 1.98 0 3 0 C2.00588307 8.56183206 -2.9384303 14.64721083 -9.5625 19.9375 C-16.00575169 24.5553448 -21.13245449 26.4929804 -29 27 C-28.83984375 25.10546875 -28.83984375 25.10546875 -28 23 C-25.62890625 22.05078125 -25.62890625 22.05078125 -22.5625 21.3125 C-13.27701111 18.47496059 -7.3685029 12.76239446 -2.5625 4.4375 C-1.91474609 3.16712891 -1.91474609 3.16712891 -1.25390625 1.87109375 C-0.84011719 1.25363281 -0.42632812 0.63617188 0 0 Z " fill="#BAA260" transform="translate(246,242)"/>
<path d="M0 0 C0.33 0 0.66 0 1 0 C1 3.3 1 6.6 1 10 C2.65 9.34 4.3 8.68 6 8 C6 5.36 6 2.72 6 0 C6.33 0 6.66 0 7 0 C7 14.19 7 28.38 7 43 C6.67 43 6.34 43 6 43 C6 36.07 6 29.14 6 22 C4.35 22.66 2.7 23.32 1 24 C1 30.27 1 36.54 1 43 C0.67 43 0.34 43 0 43 C0 28.81 0 14.62 0 0 Z " fill="#282113" transform="translate(361,224)"/>
<path d="M0 0 C0.33 0 0.66 0 1 0 C1 2.97 1 5.94 1 9 C4.1490712 6.2981424 4.1490712 6.2981424 5 3 C8.4375 3.8125 8.4375 3.8125 12 5 C12.33 5.99 12.66 6.98 13 8 C18.61 8 24.22 8 30 8 C30 8.33 30 8.66 30 9 C23.07 9 16.14 9 9 9 C9 12.96 9 16.92 9 21 C8.67 21 8.34 21 8 21 C7.67 17.7 7.34 14.4 7 11 C6.34 11 5.68 11 5 11 C4.814375 12.2065625 4.814375 12.2065625 4.625 13.4375 C4.41875 14.283125 4.2125 15.12875 4 16 C3.34 16.33 2.68 16.66 2 17 C1.67 25.25 1.34 33.5 1 42 C3.31 42 5.62 42 8 42 C8 42.33 8 42.66 8 43 C5.36 43 2.72 43 0 43 C0 28.81 0 14.62 0 0 Z " fill="#977942" transform="translate(368,224)"/>
<path d="M0 0 C3.91769589 0.5926703 6.78303264 1.78370239 10.21875 3.73828125 C11.22429932 4.30595215 12.22984863 4.87362305 13.26586914 5.45849609 C14.33313232 6.07031738 15.40039551 6.68213867 16.5 7.3125 C18.14633423 8.24570068 18.14633423 8.24570068 19.82592773 9.19775391 C23.22135331 11.12478817 26.61106837 13.06157238 30 15 C32.10529772 16.19951897 34.21075931 17.39875041 36.31640625 18.59765625 C41.21572316 21.3901205 46.11000964 24.19123819 51 27 C51 27.66 51 28.32 51 29 C46.99051247 28.41205623 44.15688559 27.15063548 40.68359375 25.0859375 C39.67103516 24.48910156 38.65847656 23.89226562 37.61523438 23.27734375 C36.56658203 22.64957031 35.51792969 22.02179688 34.4375 21.375 C33.41591797 20.77042969 32.39433594 20.16585937 31.34179688 19.54296875 C29.27296282 18.31863667 27.20550271 17.09198005 25.1394043 15.86303711 C17.71218358 11.45545321 10.28324312 7.07565808 2.64453125 3.04296875 C1 2 1 2 0 0 Z " fill="#C2B573" transform="translate(233,174)"/>
<path d="M0 0 C1.75694836 0.86304106 3.48963987 1.77625458 5.203125 2.72265625 C6.1828125 3.26083984 7.1625 3.79902344 8.171875 4.35351562 C9.69554687 5.19946289 9.69554687 5.19946289 11.25 6.0625 C12.796875 6.91424805 12.796875 6.91424805 14.375 7.78320312 C16.91895018 9.18473123 19.46048283 10.5904602 22 12 C21.01 12.66 20.02 13.32 19 14 C18.13834229 13.49231079 18.13834229 13.49231079 17.25927734 12.97436523 C14.64092053 11.4446603 12.00846704 9.94103021 9.375 8.4375 C8.47136719 7.90447266 7.56773437 7.37144531 6.63671875 6.82226562 C1.50589901 3.86841936 1.50589901 3.86841936 -4.2265625 2.90625 C-7.66158666 4.26090742 -10.68928739 6.02554299 -13.75 8.0625 C-19.76730769 12 -19.76730769 12 -22 12 C-19.94280827 7.10625984 -16.61707789 5.6561552 -12.125 3.1875 C-11.40441406 2.76791016 -10.68382812 2.34832031 -9.94140625 1.91601562 C-8.89146484 1.32916992 -8.89146484 1.32916992 -7.8203125 0.73046875 C-7.18367676 0.37364014 -6.54704102 0.01681152 -5.89111328 -0.35083008 C-3.4462695 -1.19008126 -2.41247947 -0.89995139 0 0 Z " fill="#957A45" transform="translate(213,161)"/>
<path d="M0 0 C0.33 0 0.66 0 1 0 C1.33 1.98 1.66 3.96 2 6 C2.598125 5.649375 3.19625 5.29875 3.8125 4.9375 C6 4 6 4 9 5 C8.2733313 5.52364136 8.2733313 5.52364136 7.53198242 6.05786133 C5.24120397 8.9619478 5.5629392 11.41597904 5.48828125 15.07421875 C5.46135445 16.09996758 5.46135445 16.09996758 5.43388367 17.1464386 C5.37977925 19.32673 5.3458866 21.50680256 5.3125 23.6875 C5.2793268 25.16734817 5.24483713 26.64716745 5.20898438 28.12695312 C5.12405476 31.75109169 5.05724365 35.37530652 5 39 C4.67 39 4.34 39 4 39 C3.67 33.06 3.34 27.12 3 21 C2.01 21.33 1.02 21.66 0 22 C0 14.74 0 7.48 0 0 Z " fill="#100E0A" transform="translate(451,228)"/>
<path d="M0 0 C0.66 0.33 1.32 0.66 2 1 C1.525625 1.556875 1.05125 2.11375 0.5625 2.6875 C-1.1807708 4.87026007 -1.1807708 4.87026007 -1.23046875 7.40234375 C-2.35697086 11.20500316 -4.4790401 11.97749723 -7.875 13.875 C-8.94492188 14.49117187 -10.01484375 15.10734375 -11.1171875 15.7421875 C-14 17 -14 17 -17 16 C-16.319375 14.88625 -16.319375 14.88625 -15.625 13.75 C-14.01212128 11.20196395 -14.01212128 11.20196395 -13.2734375 9.06640625 C-11.42741983 6.07087451 -9.0318964 4.91845047 -6 3.1875 C-4.9275 2.56230469 -3.855 1.93710938 -2.75 1.29296875 C-1.8425 0.86628906 -0.935 0.43960938 0 0 Z " fill="#AF9153" transform="translate(197,156)"/>
<path d="M0 0 C0.9590625 0.2784375 0.9590625 0.2784375 1.9375 0.5625 C2.9584375 0.7790625 2.9584375 0.7790625 4 1 C4.33 0.67 4.66 0.34 5 0 C7.69654854 -0.07319621 10.36691458 -0.09242537 13.0625 -0.0625 C13.82111328 -0.05798828 14.57972656 -0.05347656 15.36132812 -0.04882812 C17.24091871 -0.0370068 19.12046899 -0.01907078 21 0 C21 1.32 21 2.64 21 4 C13.08 4 5.16 4 -3 4 C-2.01 2.68 -1.02 1.36 0 0 Z " fill="#B39250" transform="translate(211,282)"/>
<path d="M0 0 C4.33150266 0.6027966 7.49176227 2.17384499 11.2890625 4.30859375 C11.87416595 4.63537613 12.45926941 4.96215851 13.06210327 5.29884338 C14.92003964 6.33872898 16.77243444 7.38808233 18.625 8.4375 C19.87726935 9.13926967 21.12987048 9.84044765 22.3828125 10.54101562 C31.38550019 15.59033346 31.38550019 15.59033346 35 18 C35 18.66 35 19.32 35 20 C31.06084721 19.29913933 27.79605165 17.41843343 24.3359375 15.5078125 C23.70265533 15.16120575 23.06937317 14.814599 22.41690063 14.45748901 C21.08262003 13.72516828 19.74966704 12.99042411 18.41796875 12.25341797 C16.37969375 11.12759256 14.33474461 10.01464039 12.2890625 8.90234375 C10.99176184 8.18827279 9.69487238 7.47345415 8.3984375 6.7578125 C7.78696869 6.42645294 7.17549988 6.09509338 6.54550171 5.75369263 C3.49085437 4.04817442 1.9828663 2.97429945 0 0 Z " fill="#CCC27E" transform="translate(175,310)"/>
<path d="M0 0 C-3.9659695 3.31768603 -8.10595833 6.11081696 -12.5 8.8125 C-13.47646484 9.44188477 -13.47646484 9.44188477 -14.47265625 10.08398438 C-17.49358828 11.9362124 -19.3769686 13.05000647 -22.96875 12.76171875 C-23.6390625 12.51035156 -24.309375 12.25898438 -25 12 C-23.25 10 -23.25 10 -21 8 C-19.68 8 -18.36 8 -17 8 C-17 7.34 -17 6.68 -17 6 C-14 4 -14 4 -10 4 C-10 3.34 -10 2.68 -10 2 C-6.37626474 -0.79545292 -4.37834956 -1.37605272 0 0 Z " fill="#14130F" transform="translate(233,316)"/>
<path d="M0 0 C3.73669693 0.41518855 6.73738338 1.11772118 10 3 C9.67 3.99 9.34 4.98 9 6 C-2.55 6 -14.1 6 -26 6 C-26 5.67 -26 5.34 -26 5 C-18.08 5 -10.16 5 -2 5 C-1.67 3.68 -1.34 2.36 -1 1 C-0.67 0.67 -0.34 0.34 0 0 Z " fill="#19150D" transform="translate(394,218)"/>
<path d="M0 0 C0.33 0 0.66 0 1 0 C1 8.25 1 16.5 1 25 C1.66 24.67 2.32 24.34 3 24 C3.33 16.08 3.66 8.16 4 0 C4.33 0 4.66 0 5 0 C5 10.23 5 20.46 5 31 C4.34 29.68 3.68 28.36 3 27 C1.68 27.99 0.36 28.98 -1 30 C-1.66 29.67 -2.32 29.34 -3 29 C-2.34 28.34 -1.68 27.68 -1 27 C-0.62760773 24.18597317 -0.62760773 24.18597317 -0.5859375 20.8984375 C-0.54726563 19.68671875 -0.50859375 18.475 -0.46875 17.2265625 C-0.4378125 15.95554688 -0.406875 14.68453125 -0.375 13.375 C-0.33632813 12.09625 -0.29765625 10.8175 -0.2578125 9.5 C-0.16328951 6.33347983 -0.07773643 3.1669696 0 0 Z " fill="#1F180D" transform="translate(318,236)"/>
<path d="M0 0 C-0.33 1.32 -0.66 2.64 -1 4 C-2.65 4.33 -4.3 4.66 -6 5 C-6 6.65 -6 8.3 -6 10 C-7.98 10.99 -7.98 10.99 -10 12 C-10 8.37 -10 4.74 -10 1 C-6.78548731 -0.60725635 -3.56387464 -0.05748185 0 0 Z " fill="#060504" transform="translate(225,269)"/>
<path d="M0 0 C0.66 0.33 1.32 0.66 2 1 C2 1.99 2 2.98 2 4 C-4.08409811 7.89785009 -8.76179827 9.65532373 -16 10 C-15.8671875 8.1328125 -15.8671875 8.1328125 -15 6 C-12.3828125 4.8046875 -12.3828125 4.8046875 -9.125 3.875 C-5.57912663 2.84114294 -3.09206997 2.06137998 0 0 Z " fill="#BDA565" transform="translate(233,259)"/>
<path d="M0 0 C0.98484375 0.00902344 1.9696875 0.01804688 2.984375 0.02734375 C4.10585938 0.04474609 4.10585938 0.04474609 5.25 0.0625 C5.25 0.3925 5.25 0.7225 5.25 1.0625 C2.28 1.0625 -0.69 1.0625 -3.75 1.0625 C-3.75 15.2525 -3.75 29.4425 -3.75 44.0625 C-4.08 44.0625 -4.41 44.0625 -4.75 44.0625 C-4.75 30.5325 -4.75 17.0025 -4.75 3.0625 C-6.4 3.3925 -8.05 3.7225 -9.75 4.0625 C-9.75 3.0725 -9.75 2.0825 -9.75 1.0625 C-6.43929162 0.06140485 -3.44915231 -0.04106134 0 0 Z " fill="#292718" transform="translate(504.75,222.9375)"/>
<path d="M0 0 C0.66 0 1.32 0 2 0 C2 1.65 2 3.3 2 5 C3.2375 4.95875 4.475 4.9175 5.75 4.875 C9.01637962 4.86341709 11.2146947 5.1431298 14 7 C12.02 7.33 10.04 7.66 8 8 C8 8.33 8 8.66 8 9 C6.35 9 4.7 9 3 9 C3 9.99 3 10.98 3 12 C1.68 12.33 0.36 12.66 -1 13 C-1.07654536 8.48382401 -1.10228696 4.40914783 0 0 Z " fill="#B59D5F" transform="translate(186,225)"/>
<path d="M0 0 C0 0.66 0 1.32 0 2 C-1.8359375 3.32861328 -1.8359375 3.32861328 -4.375 4.8203125 C-5.27734375 5.35527344 -6.1796875 5.89023437 -7.109375 6.44140625 C-8.06328125 6.99699219 -9.0171875 7.55257813 -10 8.125 C-10.95390625 8.68832031 -11.9078125 9.25164062 -12.890625 9.83203125 C-15.25662727 11.22797259 -17.6264682 12.61691272 -20 14 C-20.99 13.34 -21.98 12.68 -23 12 C-19.73565792 9.98925441 -16.46252137 7.99329608 -13.1875 6 C-12.25873047 5.42765625 -11.32996094 4.8553125 -10.37304688 4.265625 C-9.48037109 3.72421875 -8.58769531 3.1828125 -7.66796875 2.625 C-6.84578857 2.12226563 -6.0236084 1.61953125 -5.17651367 1.1015625 C-3 0 -3 0 0 0 Z " fill="#AB9A60" transform="translate(285,287)"/>
<path d="M0 0 C1.9375 0.125 1.9375 0.125 4 1 C4.66 2.65 5.32 4.3 6 6 C-2.91 6 -11.82 6 -21 6 C-21 5.67 -21 5.34 -21 5 C-14.73 5 -8.46 5 -2 5 C-1.67 3.68 -1.34 2.36 -1 1 C-0.67 0.67 -0.34 0.34 0 0 Z " fill="#151008" transform="translate(300,218)"/>
<path d="M0 0 C3.48299045 0.49757006 6.13292037 2.00897248 9 4 C9 4.66 9 5.32 9 6 C8.01 6.33 7.02 6.66 6 7 C5.34 7.66 4.68 8.32 4 9 C2.02 8.01 0.04 7.02 -2 6 C-1.125 1.125 -1.125 1.125 0 0 Z " fill="#DBD087" transform="translate(263,180)"/>
<path d="M0 0 C0.66 0.33 1.32 0.66 2 1 C0.02 2.98 -1.96 4.96 -4 7 C-3.67 7.99 -3.34 8.98 -3 10 C-2.12471312 14.02631965 -1.94252022 17.00507639 -3 21 C-3.33 21 -3.66 21 -4 21 C-4.10957031 20.43410156 -4.21914063 19.86820313 -4.33203125 19.28515625 C-4.49058594 18.55167969 -4.64914062 17.81820312 -4.8125 17.0625 C-4.96332031 16.33160156 -5.11414063 15.60070312 -5.26953125 14.84765625 C-5.63111328 13.93306641 -5.63111328 13.93306641 -6 13 C-6.99 12.67 -7.98 12.34 -9 12 C-8.45015228 8.12488273 -6.72444669 6.40423494 -3.9375 3.75 C-3.20402344 3.04359375 -2.47054688 2.3371875 -1.71484375 1.609375 C-1.14894531 1.07828125 -0.58304687 0.5471875 0 0 Z " fill="#BBA666" transform="translate(468,224)"/>
<path d="M0 0 C3.57364359 0.57409032 6.28384304 1.49945036 9.42578125 3.28515625 C10.22177734 3.73310547 11.01777344 4.18105469 11.83789062 4.64257812 C12.65451172 5.11115234 13.47113281 5.57972656 14.3125 6.0625 C15.14845703 6.53494141 15.98441406 7.00738281 16.84570312 7.49414062 C18.90069265 8.65667756 20.95187737 9.82542091 23 11 C22.67 11.66 22.34 12.32 22 13 C16.87526679 11.53351336 12.69657871 9.25383734 8.1875 6.5 C7.50751953 6.09652344 6.82753906 5.69304687 6.12695312 5.27734375 C1.12874442 2.25748884 1.12874442 2.25748884 0 0 Z " fill="#B19D60" transform="translate(233,174)"/>
<path d="M0 0 C-5.49349789 3.81492909 -10.95092327 7.14043646 -17 10 C-17.33 9.01 -17.66 8.02 -18 7 C-15.75820623 5.63034792 -13.50827662 4.27947192 -11.25 2.9375 C-10.61578125 2.54755859 -9.9815625 2.15761719 -9.328125 1.75585938 C-5.74435102 -0.35334093 -3.96345928 -1.34013518 0 0 Z " fill="#130F08" transform="translate(165,186)"/>
<path d="M0 0 C0.33 0 0.66 0 1 0 C1.33 1.98 1.66 3.96 2 6 C2.598125 5.649375 3.19625 5.29875 3.8125 4.9375 C6 4 6 4 9 5 C8.51917969 5.37769531 8.03835938 5.75539062 7.54296875 6.14453125 C5.46337042 8.64531405 5.50158423 10.47306804 5.3125 13.6875 C5.24675781 14.68136719 5.18101562 15.67523438 5.11328125 16.69921875 C5.07589844 17.45847656 5.03851563 18.21773437 5 19 C4.67 19 4.34 19 4 19 C4 15.7 4 12.4 4 9 C3.01 9 2.02 9 1 9 C1 13.29 1 17.58 1 22 C0.67 22 0.34 22 0 22 C0 14.74 0 7.48 0 0 Z " fill="#262217" transform="translate(451,228)"/>
<path d="M0 0 C4.00681602 0.59413908 6.92860999 1.87418612 10.4375 3.875 C14.25249234 6.01964434 18.06521749 8.08578148 22 10 C21.01 10.66 20.02 11.32 19 12 C16.01588868 10.38395881 13.0386265 8.75569271 10.0625 7.125 C9.21236328 6.66480469 8.36222656 6.20460937 7.48632812 5.73046875 C6.67744141 5.28574219 5.86855469 4.84101563 5.03515625 4.3828125 C3.91185913 3.77010498 3.91185913 3.77010498 2.76586914 3.14501953 C1 2 1 2 0 0 Z " fill="#A18850" transform="translate(213,163)"/>
<path d="M0 0 C2 1 2 1 3 3 C-1.62 5.64 -6.24 8.28 -11 11 C-11.66 10.01 -12.32 9.02 -13 8 C-10.880788 6.63594382 -8.75551882 5.28368225 -6.625 3.9375 C-6.02171875 3.54755859 -5.4184375 3.15761719 -4.796875 2.75585938 C-3.23507443 1.77539568 -1.62007786 0.88083925 0 0 Z " fill="#211F15" transform="translate(237,316)"/>
<path d="M0 0 C0 0.33 0 0.66 0 1 C-0.68707031 1.10957031 -1.37414062 1.21914062 -2.08203125 1.33203125 C-2.98308594 1.49058594 -3.88414062 1.64914063 -4.8125 1.8125 C-5.70582031 1.96332031 -6.59914063 2.11414063 -7.51953125 2.26953125 C-10.23916724 3.07043193 -11.10676971 3.97768583 -13 6 C-16.1875 6.6875 -16.1875 6.6875 -19 7 C-14.41049954 -1.21499626 -8.7694181 -0.81969338 0 0 Z " fill="#342F20" transform="translate(486,232)"/>
<path d="M0 0 C3.43984366 1.22851559 5.2127865 3.24960496 7.625 5.9375 C6.635 5.9375 5.645 5.9375 4.625 5.9375 C4.295 6.5975 3.965 7.2575 3.625 7.9375 C2.51125 7.009375 2.51125 7.009375 1.375 6.0625 C-0.86301188 4.33312719 -2.81239987 3.07643339 -5.375 1.9375 C-2.375 -0.0625 -2.375 -0.0625 0 0 Z " fill="#C7B573" transform="translate(224.375,206.0625)"/>
<path d="M0 0 C0.99 0.33 1.98 0.66 3 1 C0.36923129 3.99999941 -2.74179832 5.72382055 -6.1875 7.6875 C-7.27417969 8.31011719 -8.36085937 8.93273437 -9.48046875 9.57421875 C-10.72763672 10.27998047 -10.72763672 10.27998047 -12 11 C-12.99 10.34 -13.98 9.68 -15 9 C-13.50146484 8.15115234 -13.50146484 8.15115234 -11.97265625 7.28515625 C-10.66922254 6.5443558 -9.36583975 5.80346575 -8.0625 5.0625 C-7.40314453 4.68931641 -6.74378906 4.31613281 -6.06445312 3.93164062 C-2.84167167 2.23037187 -2.84167167 2.23037187 0 0 Z " fill="#8E6D38" transform="translate(152,193)"/>
<path d="M0 0 C2.0625 0.4375 2.0625 0.4375 4 1 C4.33 2.65 4.66 4.3 5 6 C3.02 6.99 3.02 6.99 1 8 C-0.5625 6.75 -0.5625 6.75 -2 5 C-1.74853421 2.86254078 -1.54074221 1.54074221 0 0 Z " fill="#020202" transform="translate(500,493)"/>
<path d="M0 0 C2.0625 0.4375 2.0625 0.4375 4 1 C4.33 2.65 4.66 4.3 5 6 C3.02 6.99 3.02 6.99 1 8 C-0.5625 6.75 -0.5625 6.75 -2 5 C-1.74853421 2.86254078 -1.54074221 1.54074221 0 0 Z " fill="#020202" transform="translate(125,493)"/>
<path d="M0 0 C2.0625 0.4375 2.0625 0.4375 4 1 C4.33 2.65 4.66 4.3 5 6 C3.02 6.99 3.02 6.99 1 8 C-0.5625 6.75 -0.5625 6.75 -2 5 C-1.74853421 2.86254078 -1.54074221 1.54074221 0 0 Z " fill="#020202" transform="translate(500,210)"/>
<path d="M0 0 C4.14298667 0.59834725 7.18194377 2.00664285 10.8125 4.0625 C11.78832031 4.61035156 12.76414063 5.15820312 13.76953125 5.72265625 C14.50558594 6.14417969 15.24164063 6.56570313 16 7 C16 7.66 16 8.32 16 9 C12.00151231 8.41748651 9.18696162 7.16686722 5.75 5.0625 C4.87859375 4.53785156 4.0071875 4.01320313 3.109375 3.47265625 C1 2 1 2 0 0 Z " fill="#D3CC86" transform="translate(175,310)"/>
<path d="M0 0 C2.97 0 5.94 0 9 0 C9.33 1.32 9.66 2.64 10 4 C6.7 4 3.4 4 0 4 C0 2.68 0 1.36 0 0 Z " fill="#CCB772" transform="translate(192,282)"/>
<path d="M0 0 C0.33 0 0.66 0 1 0 C1 1.65 1 3.3 1 5 C1.99 5 2.98 5 4 5 C4.66 6.32 5.32 7.64 6 9 C1.125 13 1.125 13 0 13 C0 8.71 0 4.42 0 0 Z " fill="#1C1912" transform="translate(421,254)"/>
<path d="M0 0 C5.47932789 1.54545146 10.11429181 4.15543212 15 7 C14.01 7.66 13.02 8.32 12 9 C9.99492073 7.88407791 7.99603904 6.75701288 6 5.625 C4.88625 4.99851562 3.7725 4.37203125 2.625 3.7265625 C1.75875 3.15679687 0.8925 2.58703125 0 2 C0 1.34 0 0.68 0 0 Z " fill="#C1B16F" transform="translate(139,289)"/>
<path d="M0 0 C3.7602985 0.58107632 6.53035032 1.65199496 9.8125 3.5625 C10.60269531 4.01753906 11.39289063 4.47257813 12.20703125 4.94140625 C12.79871094 5.29074219 13.39039063 5.64007813 14 6 C14 6.66 14 7.32 14 8 C10.0397381 7.43726296 7.47032673 6.26476935 4.1875 4 C3.39730469 3.46375 2.60710937 2.9275 1.79296875 2.375 C1.20128906 1.92125 0.60960937 1.4675 0 1 C0 0.67 0 0.34 0 0 Z " fill="#CBC27E" transform="translate(270,195)"/>
<path d="M0 0 C0 1.98 0 3.96 0 6 C-2.64 6 -5.28 6 -8 6 C-7.34 5.34 -6.68 4.68 -6 4 C-6.33 3.34 -6.66 2.68 -7 2 C-4.35261084 0.5393715 -3.10551666 0 0 0 Z " fill="#B49A5B" transform="translate(421,261)"/>
<path d="M0 0 C0.78375 0.04125 1.5675 0.0825 2.375 0.125 C2.375 2.765 2.375 5.405 2.375 8.125 C1.715 7.465 1.055 6.805 0.375 6.125 C0.705 5.465 1.035 4.805 1.375 4.125 C-1.49224686 4.69844937 -2.4864515 4.9864515 -4.625 7.125 C-4.75 4.75 -4.75 4.75 -4.625 2.125 C-2.625 0.125 -2.625 0.125 0 0 Z " fill="#AE8B4E" transform="translate(358.625,234.875)"/>
<path d="M0 0 C0.66 0.33 1.32 0.66 2 1 C-1 8.57142857 -1 8.57142857 -4 11 C-4.35233161 5.62694301 -4.35233161 5.62694301 -4 3 C-2 1 -2 1 0 0 Z " fill="#0E0D0A" transform="translate(143,201)"/>
<path d="M0 0 C2.0625 0.4375 2.0625 0.4375 4 1 C3.75 3.375 3.75 3.375 3 6 C0.9375 7.3125 0.9375 7.3125 -1 8 C-1.04241723 5.66705225 -1.04092937 3.33297433 -1 1 C-0.67 0.67 -0.34 0.34 0 0 Z " fill="#C8B06C" transform="translate(458,236)"/>
<path d="M0 0 C6.875 3.625 6.875 3.625 8 7 C4.51460083 6.35455571 1.97180943 4.89865603 -1 3 C-0.67 2.01 -0.34 1.02 0 0 Z " fill="#211F16" transform="translate(205,328)"/>
<path d="M0 0 C0.99 0 1.98 0 3 0 C3 2.64 3 5.28 3 8 C2.01 8.33 1.02 8.66 0 9 C0 6.03 0 3.06 0 0 Z " fill="#050505" transform="translate(452,237)"/>
<path d="M0 0 C3.48330216 0.64505596 6.09432866 1.98217268 9 4 C9 4.66 9 5.32 9 6 C5.21213403 5.4739075 2.82847776 4.61896089 0 2 C0 1.34 0 0.68 0 0 Z " fill="#13100A" transform="translate(211,158)"/>
<path d="M0 0 C2.64 0 5.28 0 8 0 C7.21625 0.598125 6.4325 1.19625 5.625 1.8125 C2.85425677 3.91085249 2.85425677 3.91085249 1 7 C0.67 4.69 0.34 2.38 0 0 Z " fill="#181711" transform="translate(189,234)"/>
<path d="M0 0 C3.96 1.98 3.96 1.98 8 4 C7.67 4.99 7.34 5.98 7 7 C4.36 5.68 1.72 4.36 -1 3 C-0.67 2.01 -0.34 1.02 0 0 Z " fill="#222118" transform="translate(260,185)"/>
<path d="M0 0 C1.5 1.375 1.5 1.375 3 3 C3 3.66 3 4.32 3 5 C0.69 5 -1.62 5 -4 5 C-2.25 1.125 -2.25 1.125 0 0 Z " fill="#020202" transform="translate(495,496)"/>
<path d="M0 0 C1.5 1.375 1.5 1.375 3 3 C3 3.66 3 4.32 3 5 C0.69 5 -1.62 5 -4 5 C-2.25 1.125 -2.25 1.125 0 0 Z " fill="#020202" transform="translate(120,496)"/>
<path d="M0 0 C0.98484375 0.00902344 1.9696875 0.01804688 2.984375 0.02734375 C4.10585938 0.04474609 4.10585938 0.04474609 5.25 0.0625 C5.25 0.3925 5.25 0.7225 5.25 1.0625 C1.95 1.0625 -1.35 1.0625 -4.75 1.0625 C-4.75 1.7225 -4.75 2.3825 -4.75 3.0625 C-6.4 3.3925 -8.05 3.7225 -9.75 4.0625 C-9.75 3.0725 -9.75 2.0825 -9.75 1.0625 C-6.43929162 0.06140485 -3.44915231 -0.04106134 0 0 Z " fill="#1E1C14" transform="translate(504.75,222.9375)"/>
<path d="M0 0 C4.12751449 0.60698743 7.3321148 2.03810791 11 4 C10.01 4.66 9.02 5.32 8 6 C6.66402348 5.19185349 5.331275 4.37836819 4 3.5625 C3.2575 3.11003906 2.515 2.65757812 1.75 2.19140625 C1.1725 1.79824219 0.595 1.40507812 0 1 C0 0.67 0 0.34 0 0 Z " fill="#A89256" transform="translate(224,169)"/>
<path d="M0 0 C0.33 0 0.66 0 1 0 C1 1.98 1 3.96 1 6 C2.65 5.67 4.3 5.34 6 5 C5.67 6.32 5.34 7.64 5 9 C3.35 9 1.7 9 0 9 C0 6.03 0 3.06 0 0 Z " fill="#2A2518" transform="translate(406,258)"/>
<path d="M0 0 C0.91007813 0.10183594 1.82015625 0.20367187 2.7578125 0.30859375 C3.45648438 0.39238281 4.15515625 0.47617188 4.875 0.5625 C4.875 0.8925 4.875 1.2225 4.875 1.5625 C1.245 1.8925 -2.385 2.2225 -6.125 2.5625 C-6.455 1.9025 -6.785 1.2425 -7.125 0.5625 C-4.50184968 -0.74907516 -2.89466564 -0.33399988 0 0 Z " fill="#C5AF6C" transform="translate(195.125,230.4375)"/>
<path d="M0 0 C2 1 2 1 3 3 C-1.75 6 -1.75 6 -4 6 C-4.33 5.01 -4.66 4.02 -5 3 C-2.625 1.4375 -2.625 1.4375 0 0 Z " fill="#1F1C13" transform="translate(283,289)"/>
<path d="M0 0 C2.9375 0.8125 2.9375 0.8125 6 2 C6.33 2.99 6.66 3.98 7 5 C3.31245243 4.50168276 1.39509338 3.89932357 -1 1 C-0.67 0.67 -0.34 0.34 0 0 Z " fill="#16150D" transform="translate(268,190)"/>
<path d="M0 0 C-0.33 1.32 -0.66 2.64 -1 4 C-2.32 4.33 -3.64 4.66 -5 5 C-5 3.68 -5 2.36 -5 1 C-3 0 -3 0 0 0 Z " fill="#030302" transform="translate(193,174)"/>
<path d="M0 0 C-0.33 1.32 -0.66 2.64 -1 4 C-2.65 4.33 -4.3 4.66 -6 5 C-6 4.01 -6 3.02 -6 2 C-2.25 0 -2.25 0 0 0 Z " fill="#0A0805" transform="translate(200,169)"/>
<path d="M0 0 C0 0.99 0 1.98 0 3 C-1.8125 4.0625 -1.8125 4.0625 -4 5 C-4.99 4.67 -5.98 4.34 -7 4 C-3.375 0 -3.375 0 0 0 Z " fill="#14120B" transform="translate(245,313)"/>
<path d="M0 0 C3.37462715 0.54723683 5.08235 1.0549 8 3 C8 3.66 8 4.32 8 5 C5.07120629 4.37240135 2.63904371 3.41377341 0 2 C0 1.34 0 0.68 0 0 Z " fill="#C6B978" transform="translate(202,325)"/>
<path d="M0 0 C1.65 0 3.3 0 5 0 C5 0.99 5 1.98 5 3 C3.02 3.33 1.04 3.66 -1 4 C-0.67 2.68 -0.34 1.36 0 0 Z " fill="#C7B16E" transform="translate(218,265)"/>
<path d="M0 0 C3.82097239 0.53069061 6.06171403 1.49701566 9 4 C8.01 4.33 7.02 4.66 6 5 C2.8125 3.125 2.8125 3.125 0 1 C0 0.67 0 0.34 0 0 Z " fill="#BAA969" transform="translate(247,182)"/>
<path d="M0 0 C-0.66 1.98 -1.32 3.96 -2 6 C-2.66 6 -3.32 6 -4 6 C-4 5.34 -4 4.68 -4 4 C-4.66 3.67 -5.32 3.34 -6 3 C-2.25 0 -2.25 0 0 0 Z " fill="#040404" transform="translate(231,147)"/>
<path d="M0 0 C1.485 0.99 1.485 0.99 3 2 C2.625 4.4375 2.625 4.4375 2 7 C1.01 7.495 1.01 7.495 0 8 C0 5.36 0 2.72 0 0 Z " fill="#AD8B4C" transform="translate(127,210)"/>
<path d="M0 0 C-0.3125 1.9375 -0.3125 1.9375 -1 4 C-1.99 4.33 -2.98 4.66 -4 5 C-4.99 4.34 -5.98 3.68 -7 3 C-2.25 0 -2.25 0 0 0 Z " fill="#221E15" transform="translate(193,167)"/>
<path d="M0 0 C5.75 1.75 5.75 1.75 8 4 C5 5 5 5 2.3125 3.6875 C1.549375 3.130625 0.78625 2.57375 0 2 C0 1.34 0 0.68 0 0 Z " fill="#CBC37F" transform="translate(169,306)"/>
<path d="M0 0 C5.75 1.75 5.75 1.75 8 4 C5 5 5 5 2.3125 3.6875 C1.549375 3.130625 0.78625 2.57375 0 2 C0 1.34 0 0.68 0 0 Z " fill="#B6A667" transform="translate(139,289)"/>
</svg>
