<svg width="50" height="48" viewBox="0 0 50 48" fill="none" xmlns="http://www.w3.org/2000/svg">
<g id="Frame 317333">
<path id="Vector" fill-rule="evenodd" clip-rule="evenodd" d="M19.7157 11.5635C19.2802 9.63624 20.3768 8.08105 21.4482 7.71875L26.8858 21.2637C26.8588 22.766 25.7325 23.7091 24.3768 23.3318L19.7157 11.5636V11.5635Z" fill="#FFB81C"/>
<path id="Vector_2" fill-rule="evenodd" clip-rule="evenodd" d="M23.1752 3.96525C22.717 1.74199 23.7316 -0.0418553 24.9761 0.000241767L31.7843 17.1154C31.6499 18.9268 30.6156 19.5618 29.2748 19.1839L23.1751 3.96512L23.1752 3.96525Z" fill="#FFB81C"/>
<path id="Vector_3" fill-rule="evenodd" clip-rule="evenodd" d="M37.0755 16.7137C38.7624 15.6977 40.574 16.2607 41.2505 17.1714L30.1361 26.5817C28.7069 27.024 27.4647 26.2417 27.399 24.8292L37.0755 16.7137Z" fill="#FFB81C"/>
<path id="Vector_4" fill-rule="evenodd" clip-rule="evenodd" d="M45.3394 17.6531C47.2989 16.5235 49.3018 16.9368 49.6494 18.1389L35.5853 29.9693C33.831 30.4051 32.9084 29.6148 32.8483 28.2168L45.3394 17.6531Z" fill="#FFB81C"/>
<path id="Vector_5" fill-rule="evenodd" clip-rule="evenodd" d="M38.2514 35.3617C39.7243 36.6714 39.7364 38.5771 39.0768 39.5002L26.796 31.6905C25.9455 30.4543 26.3126 29.0277 27.633 28.5391L38.2514 35.3617Z" fill="#FFB81C"/>
<path id="Vector_6" fill-rule="evenodd" clip-rule="evenodd" d="M39.5094 43.3531C41.1727 44.89 41.3844 46.9338 40.3492 47.6295L24.8825 37.7242C23.94 36.1742 24.4112 35.052 25.7194 34.5728L39.5094 43.3531Z" fill="#FFB81C"/>
<path id="Vector_7" fill-rule="evenodd" clip-rule="evenodd" d="M20.5027 41.4252C19.736 43.2454 17.9426 43.8636 16.8618 43.5287L20.3203 29.3428C21.2153 28.1388 22.6777 28.0346 23.5588 29.1371L20.5027 41.4252Z" fill="#FFB81C"/>
<path id="Vector_8" fill-rule="evenodd" clip-rule="evenodd" d="M13.2827 45.5619C12.362 47.6356 10.5016 48.488 9.51624 47.723L13.9378 29.8344C15.0994 28.4434 16.3082 28.535 17.1762 29.6288L13.2827 45.5619Z" fill="#FFB81C"/>
<path id="Vector_9" fill-rule="evenodd" clip-rule="evenodd" d="M9.32253 26.7013C7.36581 26.5045 6.24643 24.9661 6.24457 23.8295L20.751 22.9453C22.1602 23.4479 22.6925 24.8207 21.9062 25.9934L9.32253 26.7013Z" fill="#FFB81C"/>
<path id="Vector_10" fill-rule="evenodd" clip-rule="evenodd" d="M3.25092 20.9926C1.00803 20.7237 -0.353763 19.1906 0.0813299 18.018L18.3916 16.9609C20.0576 17.6636 20.3287 18.8509 19.5467 20.0085L3.25092 20.9926Z" fill="#FFB81C"/>
<path id="Vector_11" fill-rule="evenodd" clip-rule="evenodd" d="M19.7157 11.5635C19.2802 9.63624 20.3768 8.08105 21.4482 7.71875L26.8858 21.2637C26.8588 22.766 25.7325 23.7091 24.3768 23.3318L19.7157 11.5636V11.5635Z" fill="#FFB81C"/>
<path id="Vector_12" fill-rule="evenodd" clip-rule="evenodd" d="M23.1752 3.96525C22.717 1.74199 23.7316 -0.0418553 24.9761 0.000241767L31.7843 17.1154C31.6499 18.9268 30.6156 19.5618 29.2748 19.1839L23.1752 3.96525Z" fill="#FFB81C"/>
<path id="Vector_13" fill-rule="evenodd" clip-rule="evenodd" d="M37.0755 16.7137C38.7624 15.6977 40.574 16.2607 41.2505 17.1714L30.1361 26.5817C28.7069 27.024 27.4647 26.2417 27.399 24.8292L37.0755 16.7137Z" fill="#FFB81C"/>
<path id="Vector_14" fill-rule="evenodd" clip-rule="evenodd" d="M45.3394 17.6531C47.2989 16.5235 49.3018 16.9368 49.6494 18.1389L35.5853 29.9693C33.831 30.4051 32.9084 29.6148 32.8483 28.2168L45.3394 17.6531Z" fill="#FFB81C"/>
</g>
</svg>
